<svg width="102" height="74" viewBox="0 0 102 74" fill="none" xmlns="http://www.w3.org/2000/svg">
<g clip-path="url(#clip0_842_177)">
<path d="M51.1801 54.6563C51.1948 54.7076 51.1764 54.7626 51.1359 54.7957C51.1212 54.8067 51.1028 54.814 51.0843 54.8213C51.0843 54.8213 51.0623 54.825 51.0512 54.825C50.9886 54.825 50.9334 54.781 50.9187 54.7186C50.9039 54.6636 50.8929 54.6122 50.8818 54.5572C50.9592 54.5572 51.0328 54.5572 51.1138 54.5572C51.1212 54.5242 51.1285 54.4948 51.1396 54.4618C51.1469 54.4912 51.1543 54.5242 51.1617 54.5535C51.1617 54.5535 51.1617 54.5548 51.1617 54.5572C51.169 54.5866 51.1764 54.6196 51.1838 54.6489L51.1801 54.6563Z" fill="black"/>
<path d="M51.243 47.4881C51.2283 47.5064 51.2136 47.5248 51.1952 47.5321C51.1915 47.5358 51.1841 47.5395 51.1805 47.5395C51.1657 47.5431 51.1547 47.5431 51.1436 47.5431C51.0994 47.5431 51.0553 47.5248 51.0295 47.4844C50.989 47.4221 51.0037 47.3377 51.0663 47.2973C51.0921 47.2827 51.1142 47.2643 51.1326 47.2496C51.1584 47.268 51.1805 47.2863 51.2062 47.301C51.2688 47.3414 51.2836 47.4294 51.243 47.4881Z" fill="black"/>
<path d="M30.4469 44.7001C28.5249 45.6392 26.2531 46.017 23.8229 45.7933C21.7241 45.6025 19.537 44.9789 17.1363 43.8893C16.989 43.8233 16.8417 43.7536 16.6945 43.6839C11.5948 41.2701 7.36785 37.6713 4.4664 33.2802C1.56494 28.889 0.088444 23.7862 0.265182 18.8118C2.3124 25.5874 6.12332 31.5267 11.3297 36.0205C16.6687 40.6318 23.44 43.7059 30.4432 44.7001H30.4469Z" fill="black"/>
<path d="M30.292 44.9018C23.4102 43.8893 16.7568 40.8519 11.5062 36.3103C6.31448 31.8238 2.51461 25.8919 0.493164 19.12C1.51309 20.4626 3.15896 21.5118 5.21723 22.1134C6.66427 22.5353 8.18127 22.7297 9.65041 22.9168C10.2616 22.9938 10.8986 23.0782 11.5209 23.1699C13.3104 23.4487 15.8105 24.0687 17.5668 25.426C17.3569 29.0211 18.0197 33.2729 20.9727 37.1541C24.1098 41.2847 27.4126 43.6069 30.292 44.9018Z" fill="#DB0000"/>
<path d="M38.5105 53.3503C35.1193 54.5499 31.5073 55.0965 27.9062 54.9387C25.5902 54.836 23.2595 54.4398 20.9987 54.04C20.9913 54.0143 20.9729 53.9923 20.9508 53.9739C20.8919 53.9262 20.8072 53.9409 20.7594 53.9996C20.7005 53.9886 20.6415 53.9776 20.5826 53.9666C19.6989 53.8088 18.7858 53.6474 17.8874 53.5044C14.8313 53.0165 11.2376 52.6276 7.75807 53.4127C4.38163 54.172 1.53541 56.0686 0 58.5485C0.555989 54.7443 2.48906 51.1455 5.36842 48.5923C5.40156 48.5923 5.4347 48.585 5.46047 48.563C8.6123 46.0354 12.8651 44.9789 16.838 45.7309C19.6916 46.2738 22.3537 47.7119 24.8317 49.1389L25.4356 49.4874C27.7516 50.8227 30.1449 52.2021 32.7481 52.9578C33.6797 53.2292 35.0457 53.5227 36.5701 53.5227C37.1923 53.5227 37.8441 53.4713 38.5068 53.3503H38.5105Z" fill="black"/>
<path d="M51.39 54.5535C51.3752 54.6086 51.3642 54.6599 51.3531 54.715C51.3384 54.7773 51.2832 54.8213 51.2206 54.8213C51.2132 54.8213 51.2022 54.8213 51.1948 54.8177H51.1911C51.1727 54.8177 51.1543 54.8067 51.1433 54.7957C51.1028 54.7663 51.0807 54.7076 51.0954 54.6563C51.1028 54.6269 51.1101 54.5939 51.1175 54.5645C51.1249 54.5315 51.1322 54.5022 51.1433 54.4692C51.1506 54.4985 51.158 54.5315 51.1654 54.5609C51.2427 54.5609 51.3237 54.5609 51.401 54.5609L51.39 54.5535Z" fill="black"/>
<path d="M39.291 43.13C39.3167 43.1226 39.3387 43.1043 39.3571 43.086C39.3424 43.1226 39.3204 43.1557 39.3094 43.1923C39.3094 43.1703 39.3057 43.1483 39.2947 43.13H39.291Z" fill="black"/>
<path d="M41.4819 52.125C41.4819 52.125 41.4451 52.125 41.4303 52.125C41.423 52.125 41.4156 52.1287 41.4046 52.1324C40.462 52.5909 39.4936 52.9981 38.5105 53.3429C37.8477 53.464 37.196 53.5154 36.5737 53.5154C35.0494 53.5154 33.6833 53.2182 32.7518 52.9504C30.1486 52.1947 27.7552 50.8154 25.4392 49.4801L24.8354 49.1316C22.3537 47.7045 19.6952 46.2665 16.8416 45.7236C12.8687 44.9715 8.61595 46.0281 5.46412 48.5556C5.43835 48.5776 5.40521 48.5886 5.37207 48.585C6.40673 47.6678 7.62916 46.8718 8.96206 46.2298C8.96206 46.2298 8.96943 46.2261 8.97679 46.2261C11.4474 45.0412 14.2937 44.3809 17.0552 44.4139C19.4669 45.5071 21.6798 46.1381 23.797 46.3289C24.2573 46.3692 24.7102 46.3912 25.1594 46.3912C27.2802 46.3912 29.2575 45.9253 30.9402 45.0156C30.9549 45.0119 30.9733 45.0009 30.9844 44.9899C30.9954 44.9899 31.0102 44.9789 31.0212 44.9715C33.6649 46.0354 35.8889 46.2372 37.2107 46.2372C38.0134 46.2372 38.4773 46.1601 38.4994 46.1601C38.5473 46.1528 38.5841 46.1234 38.5989 46.0794C38.5068 47.0736 38.6283 48.053 38.9781 48.9775C39.4531 50.2174 40.3 51.2739 41.4819 52.1177V52.125Z" fill="#A72AD5"/>
<path d="M51.243 47.4881C51.2283 47.5064 51.2136 47.5248 51.1952 47.5321C51.1915 47.5358 51.1841 47.5395 51.1805 47.5395C51.1657 47.5431 51.1547 47.5431 51.1436 47.5431C51.0994 47.5431 51.0553 47.5248 51.0295 47.4844C50.989 47.4221 51.0037 47.3377 51.0663 47.2973C51.0921 47.2827 51.1142 47.2643 51.1326 47.2496C51.1584 47.268 51.1805 47.2863 51.2062 47.301C51.2688 47.3414 51.2836 47.4294 51.243 47.4881Z" fill="black"/>
<path d="M76.8666 23.225C73.7774 25.4701 70.7839 27.4547 67.8787 28.6323C66.104 29.355 64.0862 30.6279 62.8785 31.7541C64.5539 28.7643 63.6076 24.4979 62.6797 20.0591C64.193 16.8345 63.7843 16.3686 68.1991 12.8506C71.9437 9.86814 72.7538 8.52182 73.376 7.72576C78.3762 13.9915 76.9918 22.4693 76.874 23.225H76.8666Z" fill="#E48DC0"/>
<path d="M76.8662 23.225C77.1129 21.0753 78.0555 13.4595 73.4346 7.79913C73.4088 7.76611 73.372 7.75144 73.3241 7.75144C73.2799 7.75144 73.2431 7.77345 73.2173 7.80647C73.1952 7.83581 71.8513 10.921 67.9299 13.5549C64.929 15.5726 63.1617 18.9476 62.6719 20.0628C62.2853 18.8192 62.3295 18.9916 61.9834 18.0525C62.2154 17.5792 65.2273 12.8433 68.9646 10.0956C73.2136 6.97006 73.4677 3.42634 73.9095 2.48354C75.0105 4.06465 81.8112 15.2424 76.8625 23.2286L76.8662 23.225Z" fill="black"/>
<path d="M97.5374 33.2765C94.6359 37.6677 90.4089 41.2664 85.3093 43.6802C82.7356 44.8982 80.4048 45.5915 78.1809 45.7933C75.7507 46.017 73.4752 45.6355 71.5605 44.7001C78.5638 43.7023 85.3351 40.6318 90.6704 36.0205C95.8731 31.523 99.6877 25.5911 101.735 18.8192C101.912 23.7936 100.439 28.8891 97.5411 33.2765H97.5374Z" fill="black"/>
<path d="M101.779 18.8852C99.7578 25.6608 95.9579 31.5964 90.7626 36.0829C85.5083 40.6208 78.8622 43.6582 71.9805 44.6707C74.8598 43.3794 78.1626 41.0536 81.296 36.9266C84.249 33.0454 84.9118 28.7973 84.7019 25.1986C86.4583 23.8413 88.9584 23.2213 90.7479 22.9425C91.3664 22.8471 92.0034 22.7664 92.6183 22.6894C94.0875 22.5023 95.6045 22.3079 97.0515 21.886C99.1134 21.2807 100.763 20.2315 101.779 18.8852Z" fill="#DB0000"/>
<path d="M93.2624 46.2151C90.7734 45.2467 88.0155 44.9642 85.3792 45.4631C82.4851 46.0134 79.8009 47.4624 77.3008 48.9004L76.6932 49.249C74.3956 50.5769 72.017 51.9489 69.447 52.6936C67.617 53.2256 64.0896 53.8492 61.0372 52.0663C60.9709 52.0296 60.8862 52.0516 60.8494 52.114C60.8494 52.1177 60.8457 52.1213 60.8457 52.1287C60.831 52.125 60.8126 52.125 60.7979 52.1287C61.9761 51.2813 62.823 50.2284 63.2943 48.9885C63.6441 48.064 63.7693 47.0846 63.6772 46.0904C63.6919 46.1308 63.7324 46.1601 63.7766 46.1675C63.7987 46.1711 64.2627 46.2482 65.0653 46.2482C66.3835 46.2482 68.6112 46.0464 71.2549 44.9825C71.2659 44.9899 71.2806 44.9972 71.2917 45.0009C71.3027 45.0119 71.3175 45.0192 71.3359 45.0266C73.0222 45.9363 74.9958 46.4022 77.1204 46.4022C77.5659 46.4022 78.0225 46.3802 78.479 46.3399C80.5999 46.1491 82.8054 45.5181 85.2209 44.4249C87.9603 44.3883 90.7992 45.0449 93.2661 46.2225L93.2624 46.2151Z" fill="#A72AD5"/>
<path d="M102 58.277C100.465 55.7971 97.6184 53.9006 94.2419 53.1412C90.7587 52.3561 87.165 52.7487 84.1126 53.2329C83.2105 53.3723 82.2974 53.5374 81.4174 53.6951C81.3584 53.7061 81.2995 53.7171 81.2406 53.7245C81.1928 53.6658 81.1117 53.6548 81.0491 53.6988C81.0234 53.7171 81.0086 53.7428 81.0013 53.7648C78.7405 54.1647 76.4135 54.5572 74.0938 54.6636C70.4927 54.8177 66.8806 54.2747 63.4932 53.0752C64.1522 53.1962 64.804 53.2476 65.4299 53.2476C66.9506 53.2476 68.3166 52.9504 69.2482 52.6826C71.8514 51.9269 74.2411 50.5476 76.5534 49.2123L77.1609 48.8638C79.6426 47.4367 82.301 45.9987 85.1546 45.4558C89.1276 44.7038 93.3803 45.7603 96.5322 48.2878C96.5579 48.3098 96.5911 48.3208 96.6242 48.3172C99.5036 50.8741 101.44 54.4728 101.993 58.2734L102 58.277Z" fill="black"/>
<path d="M80.7873 73.4754C81.2402 71.355 81.1997 69.231 80.6732 67.2684C80.0068 64.7959 78.5671 62.6571 76.6156 61.2448C74.3843 59.627 71.6522 59.0511 69.5203 58.7282C68.6918 58.6072 67.8486 58.5045 67.0275 58.4091C65.3927 58.2183 63.7027 58.0166 62.0862 57.613C59.4204 56.9454 57.4027 55.8155 56.0771 54.2564C58.916 54.8654 61.8948 54.8874 64.7778 54.9057C65.3228 54.9094 65.864 54.9131 66.4016 54.9204C69.5092 54.9644 73.4748 55.2689 76.6009 57.2535C79.7821 59.2712 81.892 62.9946 82.1018 66.9602C82.2233 69.187 81.7557 71.4578 80.7837 73.4717L80.7873 73.4754Z" fill="#79D68B"/>
<path d="M80.7545 73.3103C80.7066 70.7938 79.51 68.1415 77.4517 66.0578C75.6401 64.2199 73.1953 62.7415 69.7599 61.3989C68.5559 60.9293 67.315 60.5038 66.1147 60.0892C64.524 59.5463 62.8745 58.9777 61.3059 58.3064C60.2934 57.8772 59.1262 57.3232 58.132 56.5088C57.2741 55.8081 56.7181 55.1515 56.3867 54.4288C57.7454 55.8962 59.7263 56.96 62.2927 57.6057C63.9275 58.0166 65.6287 58.2147 67.2708 58.4091C68.0883 58.5081 68.9314 58.6072 69.7562 58.7282C71.855 59.0437 74.5466 59.6087 76.73 61.1934C78.63 62.5728 80.0328 64.6565 80.6809 67.0703C81.2147 69.0403 81.2368 71.1826 80.7545 73.3103Z" fill="black"/>
<path d="M84.492 64.6711C84.2785 67.9581 82.9566 71.1863 80.8321 73.7102C81.7747 71.6925 82.2239 69.4328 82.1061 67.2207C81.8925 63.1671 79.7348 59.3665 76.4799 57.3012C73.2986 55.2799 69.2815 54.9681 66.137 54.924C65.5995 54.9167 65.0582 54.913 64.5133 54.9094C61.5271 54.891 58.4379 54.869 55.5254 54.1867C57.6094 53.8052 59.351 53.1338 60.6839 52.1984C60.6545 52.2644 60.6839 52.3451 60.7502 52.3781C64.9735 54.4325 69.6865 55.412 74.3811 55.2065C76.7413 55.1001 79.1052 54.6966 81.3954 54.2894C83.6083 57.2315 84.735 61.0063 84.492 64.6711Z" fill="#38625A"/>
<path d="M21.6361 73.7616C21.1832 71.6412 21.2237 69.5171 21.7503 67.5545C22.4167 65.082 23.8564 62.9433 25.8079 61.5309C28.0392 59.9131 30.7713 59.3372 32.9032 59.0144C33.7316 58.8933 34.5748 58.7906 35.3959 58.6952C37.0307 58.5045 38.7208 58.3027 40.3372 57.8992C43.003 57.2315 45.0208 56.1016 46.3463 54.5425C43.5075 55.1515 40.5287 55.1735 37.6456 55.1918C37.1007 55.1955 36.5594 55.1992 36.0219 55.2065C32.9142 55.2505 28.9487 55.555 25.8226 57.5397C22.6413 59.5573 20.5315 63.2808 20.3216 67.2464C20.2001 69.4731 20.6677 71.7439 21.6398 73.7579L21.6361 73.7616Z" fill="#89E0A7"/>
<path d="M21.6684 73.5965C21.7162 71.0799 22.9129 68.4276 24.9712 66.3439C26.7827 64.506 29.2276 63.0277 32.6629 61.685C33.867 61.2154 35.1078 60.7899 36.3082 60.3754C37.8988 59.8324 39.5484 59.2638 41.1169 58.5925C42.1295 58.1633 43.2967 57.6094 44.2908 56.795C45.1488 56.0943 45.7047 55.4376 46.0361 54.7149C44.6775 56.1823 42.6965 57.2462 40.1301 57.8918C38.4953 58.3027 36.7942 58.5008 35.152 58.6952C34.3346 58.7943 33.4914 58.8933 32.6666 59.0144C30.5679 59.3299 27.8763 59.8948 25.6928 61.4796C23.7929 62.8589 22.39 64.9426 21.742 67.3564C21.2081 69.3264 21.186 71.4688 21.6684 73.5965Z" fill="black"/>
<path d="M17.928 64.9609C18.1416 68.2479 19.4635 71.4761 21.588 74C20.6454 71.9824 20.1962 69.7226 20.314 67.5105C20.5276 63.4569 22.6852 59.6564 25.9402 57.591C29.1215 55.5697 33.1386 55.2579 36.283 55.2139C36.8206 55.2065 37.3619 55.2029 37.9068 55.1992C40.893 55.1808 43.9822 55.1588 46.8947 54.4765C44.8107 54.095 43.069 53.4237 41.7361 52.4882C41.7656 52.5542 41.7361 52.6349 41.6699 52.668C37.4466 54.7223 32.7335 55.7018 28.0389 55.4963C25.6787 55.3899 23.3149 54.9864 21.0246 54.5792C18.8117 57.5213 17.685 61.2962 17.928 64.9609Z" fill="#38625A"/>
<path d="M62.4071 32.5648C62.3077 32.8657 62.1973 33.1591 62.0758 33.4379C62.0132 33.592 61.9432 33.7424 61.8696 33.8892C61.7407 34.1533 61.6008 34.4101 61.4461 34.6485C61.4719 34.5238 61.4977 34.1533 61.5234 33.9955C61.8217 32.3337 62.2488 29.1789 61.7701 25.2316C61.1368 20.0701 58.7656 12.8579 51.0812 7.8138C51.0443 7.78812 51.0038 7.78446 50.9633 7.79913C50.9523 7.79913 50.9413 7.80647 50.9302 7.8138C50.9302 7.8138 50.9265 7.81747 50.9228 7.81747C43.2347 12.8616 40.8672 20.0738 40.2339 25.2353C39.7405 29.2779 40.267 32.4291 40.4953 34.1313C40.51 34.245 40.5395 34.5568 40.5579 34.6522C40.4401 34.4688 40.3333 34.2743 40.2302 34.0762C40.1197 33.8745 40.0203 33.6654 39.9283 33.4489C39.8067 33.1701 39.6926 32.8767 39.5969 32.5722C37.9989 27.7885 38.8936 20.4003 42.0086 15.4882C42.3842 14.8976 42.7745 14.2666 43.1795 13.6063C43.1905 13.5879 43.2016 13.5696 43.2126 13.5513C43.6361 12.8506 44.0742 12.1242 44.5124 11.3832C44.5308 11.3539 44.5492 11.3245 44.5676 11.2952C47.4359 6.45648 50.3889 1.12255 51.0038 0.00733948C51.6224 1.12255 54.5754 6.45648 57.4401 11.2915C57.4401 11.3282 57.4658 11.3612 57.4953 11.3795C57.9335 12.1206 58.3716 12.8469 58.795 13.5439C58.8061 13.5623 58.8171 13.5806 58.8282 13.599C59.2295 14.2593 59.6235 14.8902 59.9991 15.4809C63.1141 20.3929 64.0088 27.7812 62.4108 32.5648H62.4071Z" fill="black"/>
<path d="M61.5272 33.9919C58.9903 36.5488 57.8268 39.3185 57.8084 39.3625C57.7936 39.3918 57.7715 39.4175 57.7458 39.4285C57.7421 39.4249 57.731 39.4175 57.7274 39.4138C53.4562 35.7564 51.3979 34.3294 51.0039 34.0652C50.6284 34.3147 48.5738 35.7417 44.2768 39.4138C44.2658 39.4249 44.2511 39.4322 44.24 39.4432C44.1811 39.4505 44.1185 39.4175 44.0964 39.3588C44.078 39.3185 42.955 36.6258 40.4954 34.1056C40.1971 32.4878 39.7406 29.0395 40.2303 25.0005C40.8636 19.839 43.2348 12.6268 50.9193 7.58269C50.9193 7.58269 50.9229 7.58269 50.9266 7.57902C50.9377 7.57536 50.9487 7.56802 50.9598 7.56435C50.9966 7.54968 51.0408 7.55701 51.0776 7.57902C58.7657 12.6231 61.1332 19.8353 61.7666 24.9968C62.2489 28.9441 61.8218 32.3264 61.5235 33.9882L61.5272 33.9919Z" fill="#392CF9"/>
<path d="M25.5683 23.5038C28.6576 25.7489 32.1408 27.5464 34.976 28.878C37.0526 29.8539 37.4945 30.0043 38.7022 31.1341C37.87 25.9359 38.0431 24.5676 39.2913 19.4428C37.778 16.2182 36.4525 15.7303 34.0039 13.3165C30.5943 9.95984 29.5707 8.54749 28.9485 7.75143C23.9482 14.0171 25.4505 22.7481 25.5683 23.5074V23.5038Z" fill="#E48DC0"/>
<path d="M25.568 23.5038C25.3213 21.3541 24.1431 13.6466 28.764 7.98622C28.7898 7.9532 28.8266 7.93853 28.8745 7.93853C28.9187 7.93853 28.9555 7.96054 28.9813 7.99356C29.0034 8.0229 30.8297 11.2181 33.8784 13.3752C38.8197 16.8712 38.573 19.2997 39.0627 20.4149C39.2873 19.4355 39.6703 18.9475 40.0201 18.0121C39.7881 17.5389 40.0201 14.307 33.9226 10.246C30.3179 7.84682 28.7309 3.61709 28.2891 2.6743C27.1881 4.2554 20.623 15.5249 25.5717 23.5074L25.568 23.5038Z" fill="black"/>
<path d="M44.4055 38.5371C43.7243 39.1204 42.9879 39.7587 42.1926 40.4557C42.1889 40.463 42.1779 40.4704 42.1742 40.474C42.1705 40.4777 42.1668 40.4814 42.1594 40.485C41.8244 40.7858 41.5151 41.0903 41.2242 41.4021C41.1984 41.4168 41.1727 41.4352 41.1469 41.4498C40.6756 41.7506 40.4252 41.9267 40.4142 41.9341C40.4142 41.9341 40.4068 41.9377 40.3994 41.9451C40.3957 41.9451 40.3921 41.9524 40.3884 41.9561C40.3479 42.0038 40.3405 42.0698 40.381 42.1248C40.4068 42.1615 40.4473 42.1835 40.4915 42.1835C40.5025 42.1835 40.5136 42.1835 40.5246 42.1799C40.5393 42.1799 40.5504 42.1725 40.5614 42.1652C40.5614 42.1652 40.5614 42.1652 40.5651 42.1688C40.1122 42.7448 39.7367 43.3354 39.4384 43.9407C39.4384 43.9334 39.4384 43.926 39.4384 43.9187C39.4531 43.882 39.4715 43.8453 39.4863 43.8086C39.4752 43.816 39.4679 43.827 39.4568 43.8343C39.4458 43.8417 39.431 43.849 39.42 43.8527C39.4053 43.8196 39.3721 43.794 39.3316 43.7866C36.5811 43.075 34.2283 41.9928 32.2179 40.6795C31.5993 40.2723 31.0065 39.8467 30.4542 39.4028C30.4469 39.3992 30.4395 39.3918 30.4284 39.3808C30.1744 39.1827 29.9277 38.9773 29.6884 38.7645C29.1545 38.3023 28.6537 37.8254 28.1787 37.3302C25.5534 34.6118 23.8155 31.5377 22.6777 28.8487C20.7557 24.3035 20.1813 20.0664 20.0156 18.3239C21.8419 21.963 28.0609 26.2148 33.2158 28.7386C33.2158 28.7386 33.217 28.7386 33.2194 28.7386C33.7754 29.0138 34.3277 29.2632 34.8506 29.4907H34.8543C35.1194 29.6081 35.3771 29.7145 35.6312 29.8172C37.5201 30.5839 39.0739 31.7358 40.3111 32.95C40.4031 33.0381 40.4915 33.1298 40.5762 33.2178C43.0358 35.7381 44.1588 38.4307 44.1772 38.471C44.1993 38.5297 44.2619 38.5628 44.3208 38.5554C44.3319 38.5554 44.3429 38.5518 44.3539 38.5481C44.3687 38.5444 44.3797 38.5334 44.3908 38.5261L44.4055 38.5371Z" fill="#F1D73F"/>
<path d="M39.5893 43.1887C39.5746 43.2254 39.5525 43.2584 39.5415 43.2951C39.1254 44.1645 38.8713 45.0486 38.7793 45.9253C38.7682 45.852 38.6983 45.8043 38.6246 45.8153C38.5694 45.8226 35.517 46.3142 31.3894 44.6854C31.3894 44.6707 31.3857 44.6561 31.3747 44.6414C31.3379 44.5754 31.2532 44.5533 31.1869 44.59C31.1832 44.59 31.1759 44.5937 31.1722 44.5974C28.1971 43.3794 24.6918 41.0573 21.3669 36.6808C15.3946 28.8194 18.9441 19.4171 19.9051 17.2234C20.0303 18.7348 20.5532 23.2617 22.6114 28.1334C23.9701 31.3469 26.172 35.0997 29.7067 38.1702C29.9313 38.3793 30.167 38.5811 30.4174 38.7645C32.8144 40.6868 35.7858 42.2862 39.4531 43.2364C39.4678 43.2364 39.4789 43.2364 39.4899 43.2364C39.5047 43.2364 39.5157 43.2364 39.5267 43.2327C39.5525 43.2254 39.5746 43.207 39.593 43.1887H39.5893Z" fill="#592AD6"/>
<path d="M57.8633 38.5371C58.5445 39.1204 59.2809 39.7587 60.0762 40.4557C60.0799 40.463 60.0909 40.4704 60.0946 40.474C60.0983 40.4777 60.102 40.4814 60.1093 40.485C60.4444 40.7858 60.7537 41.0903 61.0446 41.4021C61.0703 41.4168 61.0961 41.4352 61.1219 41.4498C61.5932 41.7506 61.8436 41.9267 61.8546 41.9341C61.8546 41.9341 61.862 41.9377 61.8693 41.9451C61.873 41.9451 61.8767 41.9524 61.8804 41.9561C61.9209 42.0038 61.9283 42.0698 61.8878 42.1248C61.862 42.1615 61.8215 42.1835 61.7773 42.1835C61.7663 42.1835 61.7552 42.1835 61.7442 42.1799C61.7294 42.1799 61.7184 42.1725 61.7073 42.1652C61.7073 42.1652 61.7073 42.1652 61.7037 42.1688C62.1565 42.7448 62.5321 43.3354 62.8304 43.9407C62.8304 43.9334 62.8304 43.926 62.8304 43.9187C62.8156 43.882 62.7972 43.8453 62.7825 43.8086C62.7935 43.816 62.8009 43.827 62.812 43.8343C62.823 43.8417 62.8377 43.849 62.8488 43.8527C62.8635 43.8196 62.8966 43.794 62.9371 43.7866C65.6876 43.075 68.0405 41.9928 70.0509 40.6795C70.6694 40.2723 71.2622 39.8467 71.8145 39.4028C71.8219 39.3992 71.8293 39.3918 71.8403 39.3808C72.0944 39.1827 72.3411 38.9773 72.5804 38.7645C73.1143 38.3023 73.6151 37.8254 74.0901 37.3302C76.7154 34.6118 78.4533 31.5377 79.591 28.8487C81.5131 24.3035 82.0875 20.0664 82.2531 18.3239C80.4269 21.963 74.2079 26.2148 69.053 28.7386C69.053 28.7386 69.0518 28.7386 69.0493 28.7386C68.4933 29.0138 67.941 29.2632 67.4182 29.4907H67.4145C67.1494 29.6081 66.8917 29.7145 66.6376 29.8172C64.7487 30.5839 63.1949 31.7358 61.9577 32.95C61.8657 33.0381 61.7773 33.1298 61.6926 33.2178C59.233 35.7381 58.11 38.4307 58.0916 38.471C58.0695 38.5297 58.0069 38.5628 57.948 38.5554C57.9369 38.5554 57.9259 38.5518 57.9148 38.5481C57.9001 38.5444 57.8891 38.5334 57.878 38.5261L57.8633 38.5371Z" fill="#F1D73F"/>
<path d="M62.6795 43.1887C62.6942 43.2254 62.7163 43.2584 62.7273 43.2951C63.1434 44.1645 63.3975 45.0486 63.4895 45.9253C63.5006 45.852 63.5705 45.8043 63.6442 45.8153C63.6994 45.8226 66.7518 46.3142 70.8794 44.6854C70.8794 44.6707 70.8831 44.6561 70.8941 44.6414C70.9309 44.5754 71.0156 44.5533 71.0819 44.59C71.0856 44.59 71.0929 44.5937 71.0966 44.5974C74.0717 43.3794 77.577 41.0573 80.9019 36.6808C86.8742 28.8194 83.3247 19.4171 82.3637 17.2234C82.2385 18.7348 81.7156 23.2617 79.6574 28.1334C78.2987 31.3469 76.0968 35.0997 72.5621 38.1702C72.3375 38.3793 72.1018 38.5811 71.8514 38.7645C69.4544 40.6868 66.483 42.2862 62.8157 43.2364C62.801 43.2364 62.7899 43.2364 62.7789 43.2364C62.7641 43.2364 62.7531 43.2364 62.7421 43.2327C62.7163 43.2254 62.6942 43.207 62.6758 43.1887H62.6795Z" fill="#592AD6"/>
<path d="M63.1549 49.2856C62.6873 50.5256 61.8367 51.5748 60.6548 52.4222C60.6253 52.4478 60.5848 52.4772 60.548 52.4955C59.2114 53.431 57.4735 54.1023 55.3858 54.4802C55.3858 54.4875 55.3784 54.4875 55.3784 54.4875L55.3711 54.4802C55.3195 54.4985 55.2717 54.5058 55.2201 54.5095C54.0014 54.7223 52.6758 54.8397 51.2509 54.8507H51.0152C51.0152 54.8213 51.0042 54.7883 50.9968 54.759C50.9894 54.7883 50.9784 54.8213 50.971 54.8507H50.7391C49.3067 54.8397 47.9849 54.726 46.7698 54.5095C46.7183 54.5022 46.6704 54.4985 46.6152 54.4838C44.5348 54.1023 42.7858 53.431 41.4493 52.4992V52.4919C41.4124 52.4735 41.3793 52.4478 41.3425 52.4222C40.1605 51.5748 39.31 50.5182 38.835 49.2783C38.4852 48.3575 38.3674 47.3744 38.4521 46.3839C38.4631 46.3582 38.4705 46.3325 38.4631 46.3032C38.5552 45.3934 38.8313 44.4726 39.2695 43.5702C39.2805 43.5519 39.2879 43.5335 39.299 43.5152V43.5078C39.3174 43.4711 39.3358 43.4381 39.3542 43.4014C39.6414 42.8402 39.9985 42.2862 40.4146 41.747C40.422 41.7396 40.4257 41.736 40.433 41.7286C40.433 41.7213 40.4404 41.7213 40.4441 41.7176C40.6245 41.4828 40.8196 41.2517 41.0332 41.0206C41.0516 41.0096 41.0626 40.9913 41.0774 40.9766C41.3719 40.6648 41.6849 40.353 42.0163 40.0558H42.0237L42.0347 40.0448C42.0347 40.0448 42.0458 40.0375 42.0531 40.0265C42.8337 39.3405 43.5591 38.7132 44.2292 38.1409C44.2403 38.1299 44.255 38.1225 44.266 38.1115C48.5593 34.4394 50.6139 33.0124 50.9894 32.7629C51.3834 33.0234 53.4454 34.4504 57.7129 38.1115C57.7202 38.1115 57.7239 38.1189 57.7313 38.1225C58.4051 38.7022 59.1378 39.3295 59.9258 40.0265C59.9331 40.0375 59.9442 40.0448 59.9552 40.0558C60.294 40.3493 60.6033 40.6611 60.8978 40.9693C60.9604 41.039 61.0304 41.1123 61.093 41.1857C61.2476 41.3618 61.3912 41.5342 61.5311 41.714C61.5385 41.714 61.5422 41.7213 61.5422 41.7213C61.5495 41.7286 61.5495 41.7323 61.5532 41.7396C61.9656 42.2679 62.3228 42.8182 62.61 43.3721C62.6284 43.4161 62.6542 43.4601 62.6799 43.5078C62.691 43.5262 62.7057 43.5445 62.7094 43.5702C63.1512 44.4653 63.42 45.3897 63.5158 46.3032C63.5231 46.3289 63.5231 46.3546 63.5268 46.3766C63.6152 47.3744 63.49 48.3502 63.1402 49.2783L63.1549 49.2856Z" fill="black"/>
<path d="M55.2931 44.9092C53.1354 45.0486 51.4085 46.7507 51.2355 48.8895C51.0477 46.7618 49.3687 45.0633 47.2441 44.8358C49.4497 44.5717 51.1618 42.7154 51.1913 40.452H51.2465C51.2465 40.485 51.2465 40.5217 51.2465 40.5547C51.2465 42.8548 53.0286 44.7368 55.2931 44.9055V44.9092Z" fill="#F1D73F"/>
</g>
<defs>
<clipPath id="clip0_842_177">
<rect width="102" height="74" fill="white"/>
</clipPath>
</defs>
</svg>
