<svg width="103" height="23" viewBox="0 0 103 23" fill="none" xmlns="http://www.w3.org/2000/svg">
<path d="M13.5694 12.4386V6.03083C13.5694 1.94746 10.2713 0 6.97315 0C5.24557 0 3.07824 0.56539 1.35066 1.60194L4.05197 5.11993C4.05197 5.11993 4.4603 0.345516 6.72187 0.345516C8.26099 0.345516 8.85779 2.38721 8.98343 6.2193C4.36607 6.91033 0 8.48086 0 12.6271C0 15.8309 2.63849 17.0245 5.05711 17.0245C7.28726 17.0245 8.63791 15.7367 9.01484 14.229V16.7104L16.0508 14.6059V14.3546C14.7944 14.3546 13.5694 13.4751 13.5694 12.4386ZM6.72187 16.1136C5.30839 16.1136 4.68018 14.4175 4.68018 12.5328C4.68018 10.4597 4.99428 7.22444 8.98343 6.5334L9.01484 8.13534V10.4911C9.01484 14.5745 8.19816 16.0822 6.72187 16.0822V16.1136Z" fill="white"/>
<path d="M15.5905 2.35579C16.8783 2.35579 18.1033 3.23529 18.1033 4.27184V19.1291C18.1033 20.888 16.9411 22.2387 15.5905 22.7413V22.9926H25.2021V22.7413C23.82 22.2387 22.6578 20.888 22.6578 19.1291V16.1136C23.5687 16.679 24.6053 17.0245 25.8617 17.0245C30.7618 17.0245 33.9657 13.6322 33.9657 8.48086C33.9657 3.36093 30.7618 0.0314102 25.8617 0.0314102C24.7309 0.0314102 23.4431 0.408336 22.6578 1.06796V0.0314102L15.5905 2.13592V2.3872V2.35579ZM22.6578 8.48086V1.44489C23.1918 1.00514 23.8829 0.910907 24.6053 0.910907C26.9611 0.910907 28.94 3.54939 29.2855 8.48086C29.5682 12.4386 28.2175 16.4277 25.8931 16.4277C24.2284 16.4277 22.6578 15.1085 22.6578 8.48086Z" fill="white"/>
<path d="M51.8923 8.51227C51.8923 3.39234 48.6884 0 43.8197 0C38.9511 0 35.7158 3.39234 35.7158 8.51227C35.7158 13.6322 38.9511 17.0245 43.8197 17.0245C48.6884 17.0245 51.8923 13.6322 51.8923 8.51227ZM39.8306 4.90005C39.8306 1.72758 40.6473 0.533979 42.2806 0.565391C46.2069 0.628211 47.7775 8.57509 47.7775 12.0303C47.7775 14.2604 47.3063 16.3963 45.673 16.3963C41.7467 16.3963 39.8306 8.35522 39.8306 4.90005Z" fill="white"/>
<path d="M69.8243 8.51227C69.8243 3.39234 66.6204 0 61.7518 0C56.8831 0 53.6478 3.39234 53.6478 8.51227C53.6478 13.6322 56.8831 17.0245 61.7518 17.0245C66.6204 17.0245 69.8243 13.6322 69.8243 8.51227ZM57.7626 4.90005C57.7626 1.72758 58.5793 0.533979 60.2126 0.565391C64.139 0.628211 65.7095 8.57509 65.7095 12.0303C65.7095 14.2604 65.2383 16.3963 63.605 16.3963C59.6787 16.3963 57.7626 8.35522 57.7626 4.90005Z" fill="white"/>
<path d="M77.5618 3.58081V0L70.4944 2.10451V2.35579C71.7823 2.35579 73.0073 3.23529 73.0073 4.27184V12.8783C73.0073 14.6373 71.8451 15.988 70.4944 16.4906V16.7418H80.1061V16.4906C78.724 15.988 77.5618 14.6373 77.5618 12.8783V3.8635C78.19 3.29811 79.1638 2.76413 80.3574 2.76413C81.4567 2.76413 82.6503 3.58081 82.8388 5.0571L85.4459 0.471158C85.1318 0.251283 84.2209 0 83.4042 0C80.4202 0 78.4413 2.23015 77.5618 3.58081Z" fill="white"/>
<path d="M94.3935 16.7418H94.6448L99.6077 4.1462C100.487 1.91605 101.649 1.09937 103 0.596801V0.345516H98.257V0.596801C99.5762 1.06796 99.9532 2.48144 99.325 4.02056L96.6236 10.9937L93.5768 3.83209C92.8858 2.19874 93.3255 1.03655 94.6134 0.565391V0.314106H85.3787V0.565391C86.6665 1.03655 88.0171 1.69617 88.9595 3.92632L94.3935 16.7104V16.7418Z" fill="white"/>
<path fill-rule="evenodd" clip-rule="evenodd" d="M47.6337 8.71859C47.7586 8.71881 47.8821 8.72498 48.0039 8.73681V8.70037C47.8821 8.7122 47.7586 8.71836 47.6337 8.71859ZM43.8173 12.8896C43.8062 12.777 43.8001 12.663 43.7991 12.5477C43.7981 12.663 43.792 12.777 43.7809 12.8896H43.8173ZM43.7991 12.4829C43.8166 10.4033 45.5197 8.72233 47.6194 8.71859C45.5197 8.71484 43.8166 7.03392 43.7991 4.95431C43.7816 7.03392 42.0785 8.71484 39.9787 8.71859C42.0785 8.72233 43.7816 10.4033 43.7991 12.4829ZM39.4863 8.68835C39.643 8.70802 39.8026 8.71829 39.9645 8.71859C39.8026 8.71888 39.643 8.72916 39.4863 8.74882V8.68835ZM43.7991 4.88946C43.8004 4.73757 43.8106 4.58781 43.8294 4.44067H43.7688C43.7875 4.58781 43.7978 4.73757 43.7991 4.88946Z" fill="white"/>
</svg>
