<svg width="59" height="43" viewBox="0 0 59 43" fill="none" xmlns="http://www.w3.org/2000/svg">
<g clip-path="url(#clip0_323_68150)">
<path d="M29.6042 31.7597C29.6127 31.7896 29.602 31.8215 29.5786 31.8407C29.5701 31.8471 29.5594 31.8514 29.5488 31.8556C29.5488 31.8556 29.536 31.8578 29.5296 31.8578C29.4934 31.8578 29.4615 31.8322 29.4529 31.796C29.4444 31.764 29.438 31.7341 29.4316 31.7022C29.4764 31.7022 29.519 31.7022 29.5658 31.7022C29.5701 31.683 29.5743 31.6659 29.5807 31.6467C29.585 31.6638 29.5892 31.683 29.5935 31.7C29.5935 31.7 29.5935 31.7007 29.5935 31.7022C29.5978 31.7192 29.602 31.7384 29.6063 31.7555L29.6042 31.7597Z" fill="black"/>
<path d="M29.6405 27.5944C29.632 27.6051 29.6235 27.6157 29.6129 27.62C29.6107 27.6221 29.6065 27.6243 29.6043 27.6243C29.5958 27.6264 29.5894 27.6264 29.583 27.6264C29.5575 27.6264 29.5319 27.6157 29.517 27.5923C29.4936 27.5561 29.5021 27.507 29.5383 27.4836C29.5532 27.4751 29.566 27.4644 29.5766 27.4559C29.5916 27.4665 29.6043 27.4772 29.6192 27.4857C29.6554 27.5092 29.664 27.5603 29.6405 27.5944Z" fill="black"/>
<path d="M17.6118 25.9744C16.5 26.5201 15.1859 26.7396 13.7803 26.6096C12.5663 26.4988 11.3012 26.1364 9.91252 25.5033C9.82732 25.4649 9.74213 25.4244 9.65694 25.3839C6.70715 23.9813 4.26213 21.8901 2.58384 19.3385C0.905548 16.7869 0.0514939 13.8217 0.153725 10.9312C1.3379 14.8684 3.54225 18.3196 6.5538 20.9309C9.64203 23.6104 13.5588 25.3967 17.6096 25.9744H17.6118Z" fill="black"/>
<path d="M17.5217 26.0916C13.5411 25.5033 9.69253 23.7382 6.65542 21.0992C3.65239 18.4922 1.45442 15.0453 0.285156 11.1102C0.875114 11.8904 1.82714 12.5001 3.0177 12.8497C3.85472 13.0948 4.7322 13.2078 5.58199 13.3165C5.93554 13.3613 6.304 13.4103 6.66394 13.4636C7.69903 13.6256 9.14517 13.9859 10.1611 14.7746C10.0397 16.8636 10.4231 19.3342 12.1312 21.5895C13.9458 23.9898 15.8562 25.3391 17.5217 26.0916Z" fill="#DB0000"/>
<path d="M22.2757 31.0008C20.3141 31.6979 18.2248 32.0155 16.1418 31.9239C14.8022 31.8642 13.454 31.6339 12.1463 31.4016C12.142 31.3867 12.1314 31.3739 12.1186 31.3632C12.0845 31.3355 12.0356 31.344 12.0079 31.3781C11.9738 31.3718 11.9397 31.3654 11.9056 31.359C11.3945 31.2673 10.8663 31.1735 10.3466 31.0904C8.57888 30.8069 6.50018 30.5809 4.48751 31.0371C2.53447 31.4783 0.888131 32.5804 0 34.0214C0.321601 31.8109 1.43975 29.7197 3.10526 28.2361C3.12443 28.2361 3.1436 28.2318 3.15851 28.219C4.98163 26.7503 7.44156 26.1364 9.73962 26.5734C11.3902 26.8889 12.9301 27.7245 14.3634 28.5537L14.7127 28.7562C16.0524 29.5321 17.4368 30.3336 18.9425 30.7728C19.4814 30.9305 20.2715 31.101 21.1533 31.101C21.5132 31.101 21.8902 31.0712 22.2736 31.0008H22.2757Z" fill="black"/>
<path d="M29.7258 31.7C29.7172 31.732 29.7109 31.7618 29.7045 31.7938C29.6959 31.8301 29.664 31.8556 29.6278 31.8556C29.6235 31.8556 29.6171 31.8556 29.6129 31.8535H29.6108C29.6001 31.8535 29.5895 31.8471 29.5831 31.8407C29.5596 31.8237 29.5469 31.7896 29.5554 31.7597C29.5596 31.7427 29.5639 31.7235 29.5682 31.7064C29.5724 31.6872 29.5767 31.6702 29.5831 31.651C29.5873 31.6681 29.5916 31.6872 29.5958 31.7043C29.6406 31.7043 29.6874 31.7043 29.7322 31.7043L29.7258 31.7Z" fill="black"/>
<path d="M22.7275 25.062C22.7425 25.0578 22.7554 25.0471 22.7661 25.0364C22.7576 25.0578 22.7447 25.0769 22.7383 25.0983C22.7383 25.0855 22.7361 25.0727 22.7297 25.062H22.7275Z" fill="black"/>
<path d="M23.9945 30.2889C23.9945 30.2889 23.9732 30.2889 23.9647 30.2889C23.9604 30.2889 23.9561 30.291 23.9497 30.2931C23.4045 30.5596 22.8444 30.7962 22.2757 30.9966C21.8923 31.0669 21.5154 31.0968 21.1554 31.0968C20.2737 31.0968 19.4835 30.9241 18.9447 30.7685C17.4389 30.3294 16.0545 29.5279 14.7149 28.7519L14.3656 28.5494C12.9301 27.7202 11.3924 26.8846 9.74178 26.5691C7.44372 26.1321 4.98378 26.746 3.16067 28.2147C3.14576 28.2275 3.12659 28.2339 3.10742 28.2318C3.7059 27.6989 4.413 27.2363 5.18399 26.8633C5.18399 26.8633 5.18825 26.8611 5.19251 26.8611C6.62161 26.1726 8.26795 25.7889 9.86531 25.8081C11.2603 26.4433 12.5404 26.81 13.765 26.9208C14.0312 26.9443 14.2932 26.9571 14.553 26.9571C15.7798 26.9571 16.9235 26.6863 17.8968 26.1577C17.9053 26.1556 17.916 26.1492 17.9224 26.1428C17.9288 26.1428 17.9373 26.1364 17.9437 26.1321C19.4729 26.7503 20.7593 26.8675 21.5239 26.8675C21.9882 26.8675 22.2565 26.8228 22.2693 26.8228C22.297 26.8185 22.3183 26.8014 22.3268 26.7759C22.2736 27.3535 22.3439 27.9227 22.5462 28.4599C22.8209 29.1804 23.3108 29.7943 23.9945 30.2846V30.2889Z" fill="#A72AD5"/>
<path d="M29.6405 27.5944C29.632 27.6051 29.6235 27.6157 29.6129 27.62C29.6107 27.6221 29.6065 27.6243 29.6043 27.6243C29.5958 27.6264 29.5894 27.6264 29.583 27.6264C29.5575 27.6264 29.5319 27.6157 29.517 27.5923C29.4936 27.5561 29.5021 27.507 29.5383 27.4836C29.5532 27.4751 29.566 27.4644 29.5766 27.4559C29.5916 27.4665 29.6043 27.4772 29.6192 27.4857C29.6554 27.5092 29.664 27.5603 29.6405 27.5944Z" fill="black"/>
<path d="M44.462 13.4956C42.6751 14.8002 40.9436 15.9534 39.2632 16.6377C38.2366 17.0576 37.0694 17.7973 36.3709 18.4517C37.3399 16.7144 36.7926 14.2353 36.2559 11.656C37.1312 9.78222 36.8948 9.5115 39.4484 7.46723C41.6145 5.73418 42.083 4.95186 42.443 4.48929C45.3352 8.13018 44.5344 13.0565 44.4663 13.4956H44.462Z" fill="#E48DC0"/>
<path d="M44.4622 13.4956C44.6049 12.2464 45.1501 7.8211 42.4772 4.53193C42.4623 4.51275 42.441 4.50422 42.4133 4.50422C42.3878 4.50422 42.3665 4.51701 42.3516 4.5362C42.3388 4.55325 41.5614 6.34598 39.2932 7.87652C37.5574 9.04894 36.5351 11.0101 36.2518 11.6581C36.0282 10.9355 36.0537 11.0357 35.8535 10.4899C35.9877 10.215 37.7299 7.46298 39.8916 5.86636C42.3494 4.05018 42.4964 1.99098 42.752 1.44315C43.3888 2.36189 47.3225 8.85709 44.4601 13.4977L44.4622 13.4956Z" fill="black"/>
<path d="M56.4184 19.3364C54.7401 21.888 52.2951 23.9791 49.3453 25.3818C47.8566 26.0895 46.5084 26.4924 45.222 26.6096C43.8163 26.7396 42.5001 26.5179 41.3926 25.9744C45.4435 25.3946 49.3602 23.6104 52.4463 20.9308C55.4557 18.3174 57.6622 14.8705 58.8464 10.9355C58.9486 13.826 58.0967 16.7869 56.4205 19.3364H56.4184Z" fill="black"/>
<path d="M58.8723 10.9738C57.703 14.911 55.5051 18.3601 52.4999 20.9671C49.4607 23.604 45.6164 25.369 41.6357 25.9573C43.3013 25.207 45.2117 23.8555 47.0242 21.4574C48.7323 19.2021 49.1156 16.7336 48.9942 14.6424C50.0102 13.8537 51.4563 13.4935 52.4914 13.3315C52.8492 13.276 53.2176 13.2291 53.5733 13.1844C54.4231 13.0757 55.3006 12.9627 56.1376 12.7175C57.3303 12.3658 58.2845 11.7562 58.8723 10.9738Z" fill="#DB0000"/>
<path d="M53.9455 26.8547C52.5058 26.292 50.9106 26.1278 49.3856 26.4178C47.7116 26.7375 46.1589 27.5795 44.7128 28.4151L44.3614 28.6176C43.0324 29.3893 41.6565 30.1865 40.1699 30.6193C39.1114 30.9284 37.071 31.2907 35.3054 30.2548C35.2671 30.2334 35.2181 30.2462 35.1968 30.2825C35.1968 30.2846 35.1947 30.2867 35.1947 30.291C35.1862 30.2889 35.1755 30.2889 35.167 30.291C35.8485 29.7986 36.3384 29.1868 36.611 28.4663C36.8133 27.9291 36.8858 27.36 36.8325 26.7823C36.841 26.8057 36.8645 26.8228 36.89 26.827C36.9028 26.8292 37.1711 26.8739 37.6354 26.8739C38.3979 26.8739 39.6865 26.7567 41.2157 26.1385C41.222 26.1428 41.2306 26.147 41.237 26.1492C41.2433 26.1556 41.2519 26.1598 41.2625 26.1641C42.238 26.6927 43.3795 26.9635 44.6084 26.9635C44.8661 26.9635 45.1302 26.9507 45.3943 26.9272C46.6211 26.8164 47.8969 26.4497 49.294 25.8145C50.8786 25.7932 52.5207 26.1747 53.9477 26.859L53.9455 26.8547Z" fill="#A72AD5"/>
<path d="M59.0001 33.8637C58.112 32.4227 56.4656 31.3206 54.5126 30.8793C52.4978 30.4232 50.4191 30.6512 48.6535 30.9326C48.1317 31.0136 47.6035 31.1096 47.0945 31.2012C47.0604 31.2076 47.0263 31.214 46.9922 31.2183C46.9646 31.1842 46.9177 31.1778 46.8815 31.2033C46.8666 31.214 46.8581 31.2289 46.8538 31.2417C45.5461 31.4741 44.2001 31.7022 42.8583 31.764C40.7753 31.8535 38.686 31.538 36.7266 30.841C37.1078 30.9113 37.4848 30.9411 37.8468 30.9411C38.7265 30.9411 39.5166 30.7685 40.0555 30.6129C41.5612 30.1738 42.9435 29.3722 44.281 28.5963L44.6324 28.3938C46.0679 27.5646 47.6056 26.729 49.2562 26.4135C51.5543 25.9765 54.0142 26.5904 55.8374 28.0591C55.8523 28.0719 55.8714 28.0783 55.8906 28.0762C57.5561 29.562 58.6764 31.6531 58.9959 33.8615L59.0001 33.8637Z" fill="black"/>
<path d="M46.7307 42.6952C46.9926 41.4631 46.9692 40.2288 46.6646 39.0884C46.2791 37.6516 45.4464 36.4089 44.3176 35.5882C43.0269 34.6481 41.4466 34.3134 40.2134 34.1259C39.7342 34.0555 39.2465 33.9958 38.7716 33.9404C37.8259 33.8296 36.8483 33.7123 35.9133 33.4778C34.3714 33.0899 33.2042 32.4333 32.4375 31.5274C34.0796 31.8812 35.8026 31.894 37.4702 31.9047C37.7855 31.9068 38.0985 31.9089 38.4095 31.9132C40.207 31.9388 42.5009 32.1157 44.3091 33.2689C46.1492 34.4414 47.3696 36.605 47.491 38.9093C47.5613 40.2032 47.2908 41.5228 46.7285 42.693L46.7307 42.6952Z" fill="#79D68B"/>
<path d="M46.7113 42.5992C46.6836 41.1369 45.9914 39.5957 44.8009 38.3849C43.753 37.317 42.3388 36.4579 40.3517 35.6777C39.6552 35.4049 38.9375 35.1576 38.2432 34.9167C37.3231 34.6012 36.3689 34.2708 35.4616 33.8807C34.8759 33.6313 34.2008 33.3094 33.6257 32.8362C33.1295 32.4291 32.8079 32.0475 32.6162 31.6275C33.4021 32.4802 34.5479 33.0984 36.0324 33.4736C36.9781 33.7123 37.962 33.8274 38.9119 33.9404C39.3847 33.998 39.8725 34.0555 40.3496 34.1259C41.5635 34.3092 43.1204 34.6375 44.3834 35.5583C45.4824 36.3599 46.2939 37.5706 46.6687 38.9733C46.9775 40.118 46.9903 41.3629 46.7113 42.5992Z" fill="black"/>
<path d="M48.8724 37.5792C48.7489 39.4891 47.9843 41.365 46.7554 42.8316C47.3006 41.6592 47.5604 40.3461 47.4923 39.0607C47.3688 36.7052 46.1207 34.4968 44.2379 33.2966C42.3978 32.1221 40.0742 31.9409 38.2553 31.9153C37.9443 31.9111 37.6313 31.9089 37.3161 31.9068C35.5888 31.8961 33.8019 31.8834 32.1172 31.4869C33.3227 31.2652 34.3301 30.8751 35.1011 30.3315C35.084 30.3699 35.1011 30.4168 35.1394 30.436C37.5823 31.6297 40.3084 32.1988 43.0239 32.0795C44.3892 32.0176 45.7565 31.7832 47.0812 31.5466C48.3612 33.2561 49.013 35.4496 48.8724 37.5792Z" fill="#38625A"/>
<path d="M12.5144 42.8614C12.2525 41.6293 12.2759 40.3951 12.5805 39.2547C12.966 37.8179 13.7987 36.5752 14.9275 35.7545C16.2182 34.8144 17.7985 34.4797 19.0317 34.2921C19.5109 34.2218 19.9986 34.1621 20.4735 34.1067C21.4192 33.9958 22.3968 33.8786 23.3317 33.6441C24.8737 33.2561 26.0409 32.5996 26.8076 31.6936C25.1655 32.0475 23.4425 32.0603 21.7748 32.0709C21.4596 32.0731 21.1466 32.0752 20.8356 32.0795C19.038 32.105 16.7442 32.282 14.936 33.4352C13.0959 34.6076 11.8755 36.7713 11.7541 39.0756C11.6838 40.3695 11.9543 41.689 12.5166 42.8593L12.5144 42.8614Z" fill="#89E0A7"/>
<path d="M12.5336 42.7655C12.5613 41.3032 13.2535 39.762 14.4441 38.5512C15.4919 37.4832 16.9061 36.6242 18.8932 35.844C19.5897 35.5711 20.3074 35.3239 21.0017 35.083C21.9218 34.7675 22.876 34.4371 23.7833 34.047C24.369 33.7976 25.0441 33.4757 25.6192 33.0025C26.1154 32.5953 26.437 32.2138 26.6287 31.7938C25.8428 32.6465 24.697 33.2647 23.2125 33.6398C22.2668 33.8786 21.2829 33.9937 20.333 34.1067C19.8602 34.1642 19.3724 34.2218 18.8954 34.2921C17.6814 34.4755 16.1245 34.8037 14.8615 35.7246C13.7625 36.5261 12.9511 37.7369 12.5762 39.1396C12.2674 40.2843 12.2546 41.5291 12.5336 42.7655Z" fill="black"/>
<path d="M10.3704 37.7476C10.4939 39.6576 11.2585 41.5334 12.4874 43C11.9422 41.8276 11.6823 40.5145 11.7505 39.2291C11.874 36.8736 13.1221 34.6652 15.0048 33.4651C16.845 32.2905 19.1686 32.1093 20.9875 32.0837C21.2984 32.0795 21.6115 32.0773 21.9267 32.0752C23.654 32.0646 25.4409 32.0518 27.1256 31.6553C25.9201 31.4336 24.9127 31.0435 24.1417 30.4999C24.1588 30.5383 24.1417 30.5852 24.1034 30.6044C21.6605 31.7981 18.9344 32.3672 16.2188 32.2479C14.8536 32.1861 13.4863 31.9516 12.1616 31.715C10.8815 33.4246 10.2298 35.618 10.3704 37.7476Z" fill="#38625A"/>
<path d="M36.098 18.9228C36.0405 19.0976 35.9766 19.2681 35.9063 19.4301C35.8701 19.5197 35.8297 19.6071 35.7871 19.6923C35.7125 19.8458 35.6316 19.995 35.5421 20.1336C35.5571 20.0611 35.572 19.8458 35.5869 19.7542C35.7594 18.7885 36.0064 16.9553 35.7296 14.6616C35.3632 11.6623 33.9916 7.47149 29.5467 4.54045C29.5254 4.52552 29.502 4.52339 29.4786 4.53192C29.4722 4.53192 29.4658 4.53618 29.4594 4.54045C29.4594 4.54045 29.4573 4.54258 29.4551 4.54258C25.0081 7.47362 23.6386 11.6645 23.2723 14.6637C22.9869 17.0128 23.2915 18.8439 23.4235 19.833C23.432 19.8991 23.4491 20.0803 23.4597 20.1357C23.3916 20.0291 23.3298 19.9162 23.2702 19.8011C23.2063 19.6838 23.1488 19.5623 23.0955 19.4365C23.0253 19.2745 22.9592 19.104 22.9039 18.9271C21.9795 16.1474 22.4971 11.8542 24.2989 8.99989C24.5161 8.6567 24.7419 8.29005 24.9762 7.90635C24.9825 7.89569 24.9889 7.88503 24.9953 7.87437C25.2403 7.46722 25.4937 7.04515 25.7471 6.61456C25.7578 6.5975 25.7684 6.58045 25.7791 6.5634C27.4382 3.75173 29.1463 0.652284 29.502 0.0042572C29.8598 0.652284 31.5679 3.75173 33.2249 6.56127C33.2249 6.58258 33.2398 6.60177 33.2569 6.61243C33.5103 7.04302 33.7638 7.46509 34.0087 7.87011C34.0151 7.88077 34.0215 7.89143 34.0279 7.90208C34.26 8.28578 34.4879 8.65243 34.7051 8.99563C36.507 11.8499 37.0245 16.1431 36.1002 18.9228H36.098Z" fill="black"/>
<path d="M35.5891 19.752C34.1216 21.2378 33.4486 22.8472 33.4379 22.8728C33.4294 22.8899 33.4167 22.9048 33.4017 22.9112C33.3996 22.909 33.3932 22.9048 33.3911 22.9026C30.9205 20.7774 29.73 19.9482 29.5021 19.7947C29.2848 19.9396 28.0964 20.7688 25.6109 22.9026C25.6045 22.909 25.596 22.9133 25.5896 22.9197C25.5555 22.924 25.5193 22.9048 25.5065 22.8707C25.4959 22.8472 24.8463 21.2826 23.4236 19.8181C23.2511 18.8781 22.987 16.8743 23.2702 14.5273C23.6366 11.5281 25.0082 7.3372 29.4531 4.40616C29.4531 4.40616 29.4552 4.40616 29.4573 4.40403C29.4637 4.4019 29.4701 4.39764 29.4765 4.3955C29.4978 4.38698 29.5234 4.39124 29.5447 4.40403C33.9917 7.33507 35.3612 11.5259 35.7275 14.5252C36.0065 16.8189 35.7594 18.7843 35.5869 19.7499L35.5891 19.752Z" fill="#392CF9"/>
<path d="M14.7898 13.6576C16.5767 14.9622 18.5915 16.0067 20.2314 16.7805C21.4326 17.3475 21.6882 17.4349 22.3868 18.0915C21.9055 15.0709 22.0056 14.2758 22.7276 11.2978C21.8522 9.4241 21.0855 9.14059 19.6692 7.73795C17.697 5.78748 17.1049 4.96678 16.7449 4.50421C13.8527 8.1451 14.7216 13.2185 14.7898 13.6597V13.6576Z" fill="#E48DC0"/>
<path d="M14.7896 13.6576C14.6469 12.4084 13.9654 7.9298 16.6383 4.64064C16.6532 4.62146 16.6745 4.61293 16.7022 4.61293C16.7278 4.61293 16.7491 4.62572 16.764 4.6449C16.7767 4.66196 17.8331 6.51864 19.5966 7.77206C22.4548 9.80354 22.3121 11.2147 22.5954 11.8627C22.7253 11.2936 22.9468 11.0101 23.1491 10.4665C23.015 10.1915 23.1491 8.3135 19.6222 5.95375C17.5371 4.55964 16.6191 2.10182 16.3636 1.55399C15.7267 2.47273 11.9293 9.02122 14.7918 13.6597L14.7896 13.6576Z" fill="black"/>
<path d="M25.686 22.3932C25.292 22.7321 24.866 23.103 24.406 23.508C24.4038 23.5123 24.3975 23.5166 24.3953 23.5187C24.3932 23.5208 24.3911 23.5229 24.3868 23.5251C24.193 23.6999 24.0141 23.8768 23.8458 24.058C23.8309 24.0665 23.816 24.0772 23.8011 24.0857C23.5285 24.2605 23.3837 24.3628 23.3773 24.3671C23.3773 24.3671 23.373 24.3692 23.3688 24.3735C23.3666 24.3735 23.3645 24.3777 23.3624 24.3799C23.3389 24.4076 23.3347 24.446 23.3581 24.4779C23.373 24.4993 23.3964 24.512 23.422 24.512C23.4284 24.512 23.4348 24.512 23.4412 24.5099C23.4497 24.5099 23.4561 24.5056 23.4625 24.5014C23.4625 24.5014 23.4625 24.5014 23.4646 24.5035C23.2026 24.8382 22.9854 25.1814 22.8129 25.5331C22.8129 25.5288 22.8129 25.5246 22.8129 25.5203C22.8214 25.499 22.832 25.4777 22.8406 25.4564C22.8342 25.4606 22.8299 25.467 22.8235 25.4713C22.8171 25.4756 22.8086 25.4798 22.8022 25.4819C22.7937 25.4628 22.7745 25.4478 22.7511 25.4436C21.1601 25.03 19.7992 24.4012 18.6363 23.6381C18.2785 23.4014 17.9356 23.1542 17.6161 22.8962C17.6119 22.8941 17.6076 22.8898 17.6012 22.8834C17.4543 22.7683 17.3116 22.649 17.1731 22.5253C16.8643 22.2567 16.5747 21.9796 16.2999 21.6918C14.7814 20.1123 13.7761 18.3259 13.118 16.7634C12.0062 14.1223 11.674 11.6602 11.5781 10.6477C12.6345 12.7623 16.2318 15.2329 19.2135 16.6995C19.2135 16.6995 19.2142 16.6995 19.2156 16.6995C19.5372 16.8594 19.8567 17.0043 20.1591 17.1365H20.1613C20.3146 17.2047 20.4637 17.2665 20.6106 17.3262C21.7032 17.7717 22.602 18.4411 23.3176 19.1466C23.3709 19.1978 23.422 19.2511 23.471 19.3022C24.8937 20.7667 25.5433 22.3313 25.5539 22.3548C25.5667 22.3889 25.6029 22.4081 25.637 22.4038C25.6434 22.4038 25.6498 22.4017 25.6562 22.3996C25.6647 22.3974 25.6711 22.391 25.6775 22.3868L25.686 22.3932Z" fill="#F1D73F"/>
<path d="M22.9 25.0961C22.8915 25.1174 22.8788 25.1366 22.8724 25.1579C22.6317 25.6631 22.4847 26.1769 22.4315 26.6863C22.4251 26.6437 22.3846 26.616 22.342 26.6224C22.3101 26.6267 20.5445 26.9123 18.157 25.9658C18.157 25.9573 18.1548 25.9488 18.1484 25.9403C18.1271 25.9019 18.0782 25.8891 18.0398 25.9104C18.0377 25.9104 18.0334 25.9126 18.0313 25.9147C16.3104 25.207 14.2828 23.8576 12.3596 21.3145C8.90507 16.7464 10.9582 11.2829 11.5141 10.0082C11.5865 10.8864 11.8889 13.5169 13.0795 16.3478C13.8654 18.2151 15.139 20.3958 17.1836 22.18C17.3136 22.3015 17.4499 22.4187 17.5947 22.5253C18.9812 23.6423 20.7 24.5717 22.8212 25.1238C22.8298 25.1238 22.8362 25.1238 22.8425 25.1238C22.8511 25.1238 22.8575 25.1238 22.8638 25.1217C22.8788 25.1174 22.8915 25.1068 22.9022 25.0961H22.9Z" fill="#592AD6"/>
<path d="M33.4697 22.3932C33.8637 22.7321 34.2897 23.103 34.7497 23.508C34.7519 23.5123 34.7583 23.5166 34.7604 23.5187C34.7625 23.5208 34.7647 23.5229 34.7689 23.5251C34.9627 23.6999 35.1416 23.8768 35.3099 24.058C35.3248 24.0665 35.3397 24.0772 35.3546 24.0857C35.6272 24.2605 35.7721 24.3628 35.7784 24.3671C35.7784 24.3671 35.7827 24.3692 35.787 24.3735C35.7891 24.3735 35.7912 24.3777 35.7934 24.3799C35.8168 24.4076 35.821 24.446 35.7976 24.4779C35.7827 24.4993 35.7593 24.512 35.7337 24.512C35.7273 24.512 35.7209 24.512 35.7145 24.5099C35.706 24.5099 35.6996 24.5056 35.6932 24.5014C35.6932 24.5014 35.6932 24.5014 35.6911 24.5035C35.9531 24.8382 36.1703 25.1814 36.3428 25.5331C36.3428 25.5288 36.3428 25.5246 36.3428 25.5203C36.3343 25.499 36.3237 25.4777 36.3152 25.4564C36.3215 25.4606 36.3258 25.467 36.3322 25.4713C36.3386 25.4756 36.3471 25.4798 36.3535 25.4819C36.362 25.4628 36.3812 25.4478 36.4046 25.4436C37.9956 25.03 39.3565 24.4012 40.5194 23.6381C40.8772 23.4014 41.2201 23.1542 41.5396 22.8962C41.5438 22.8941 41.5481 22.8898 41.5545 22.8834C41.7014 22.7683 41.8441 22.649 41.9826 22.5253C42.2914 22.2567 42.5811 21.9796 42.8558 21.6918C44.3744 20.1123 45.3796 18.3259 46.0377 16.7634C47.1495 14.1223 47.4817 11.6602 47.5776 10.6477C46.5212 12.7623 42.924 15.2329 39.9422 16.6995C39.9422 16.6995 39.9415 16.6995 39.9401 16.6995C39.6185 16.8594 39.299 17.0043 38.9966 17.1365H38.9945C38.8411 17.2047 38.692 17.2665 38.5451 17.3262C37.4525 17.7717 36.5537 18.4411 35.8381 19.1466C35.7848 19.1978 35.7337 19.2511 35.6847 19.3022C34.262 20.7667 33.6124 22.3313 33.6018 22.3548C33.589 22.3889 33.5528 22.4081 33.5187 22.4038C33.5123 22.4038 33.5059 22.4017 33.4995 22.3996C33.491 22.3974 33.4846 22.391 33.4782 22.3868L33.4697 22.3932Z" fill="#F1D73F"/>
<path d="M36.256 25.0961C36.2646 25.1174 36.2773 25.1366 36.2837 25.1579C36.5244 25.6631 36.6713 26.1769 36.7246 26.6863C36.731 26.6437 36.7715 26.616 36.814 26.6224C36.846 26.6267 38.6116 26.9123 40.9991 25.9658C40.9991 25.9573 41.0013 25.9488 41.0076 25.9403C41.0289 25.9019 41.0779 25.8891 41.1163 25.9104C41.1184 25.9104 41.1227 25.9126 41.1248 25.9147C42.8457 25.207 44.8732 23.8576 46.7965 21.3145C50.251 16.7464 48.1979 11.2829 47.642 10.0082C47.5696 10.8864 47.2672 13.5169 46.0766 16.3478C45.2907 18.2151 44.0171 20.3958 41.9724 22.18C41.8425 22.3015 41.7062 22.4187 41.5614 22.5253C40.1749 23.6423 38.4561 24.5717 36.3348 25.1238C36.3263 25.1238 36.3199 25.1238 36.3135 25.1238C36.305 25.1238 36.2986 25.1238 36.2922 25.1217C36.2773 25.1174 36.2646 25.1068 36.2539 25.0961H36.256Z" fill="#592AD6"/>
<path d="M36.5307 28.639C36.2602 29.3595 35.7682 29.9691 35.0845 30.4615C35.0675 30.4764 35.0441 30.4935 35.0228 30.5042C34.2496 31.0477 33.2444 31.4378 32.0368 31.6574C32.0368 31.6617 32.0325 31.6617 32.0325 31.6617L32.0283 31.6574C31.9984 31.668 31.9707 31.6723 31.9409 31.6744C31.236 31.7981 30.4692 31.8663 29.645 31.8727H29.5087C29.5087 31.8556 29.5023 31.8365 29.498 31.8194C29.4938 31.8365 29.4874 31.8556 29.4831 31.8727H29.349C28.5205 31.8663 27.7559 31.8002 27.053 31.6744C27.0232 31.6702 26.9955 31.668 26.9636 31.6595C25.7602 31.4378 24.7486 31.0477 23.9754 30.5063V30.502C23.9541 30.4914 23.935 30.4764 23.9137 30.4615C23.23 29.9691 22.738 29.3552 22.4633 28.6347C22.2609 28.0996 22.1928 27.5284 22.2418 26.9528C22.2482 26.9379 22.2524 26.923 22.2482 26.9059C22.3014 26.3772 22.4611 25.8422 22.7146 25.3178C22.721 25.3072 22.7252 25.2965 22.7316 25.2858V25.2816C22.7423 25.2603 22.7529 25.2411 22.7636 25.2198C22.9297 24.8936 23.1363 24.5717 23.377 24.2584C23.3812 24.2541 23.3834 24.252 23.3876 24.2477C23.3876 24.2435 23.3919 24.2435 23.394 24.2413C23.4984 24.1049 23.6112 23.9706 23.7348 23.8363C23.7454 23.8299 23.7518 23.8192 23.7603 23.8107C23.9307 23.6295 24.1117 23.4483 24.3034 23.2757H24.3077L24.3141 23.2693C24.3141 23.2693 24.3205 23.265 24.3247 23.2586C24.7762 22.86 25.1958 22.4955 25.5834 22.1629C25.5898 22.1565 25.5984 22.1523 25.6047 22.1459C28.0881 20.0121 29.2765 19.1829 29.4938 19.0379C29.7217 19.1893 30.9144 20.0185 33.3828 22.1459C33.3871 22.1459 33.3892 22.1502 33.3935 22.1523C33.7832 22.4891 34.207 22.8536 34.6628 23.2586C34.6671 23.265 34.6735 23.2693 34.6799 23.2757C34.8758 23.4462 35.0547 23.6274 35.2251 23.8065C35.2613 23.847 35.3018 23.8896 35.338 23.9322C35.4274 24.0345 35.5105 24.1347 35.5914 24.2392C35.5957 24.2392 35.5978 24.2435 35.5978 24.2435C35.6021 24.2477 35.6021 24.2498 35.6042 24.2541C35.8427 24.5611 36.0493 24.8808 36.2155 25.2027C36.2261 25.2283 36.241 25.2539 36.2559 25.2816C36.2623 25.2922 36.2708 25.3029 36.273 25.3178C36.5285 25.8379 36.684 26.3751 36.7394 26.9059C36.7437 26.9208 36.7437 26.9357 36.7458 26.9485C36.7969 27.5283 36.7245 28.0954 36.5221 28.6347L36.5307 28.639Z" fill="black"/>
<path d="M31.9829 26.0959C30.7348 26.1769 29.736 27.166 29.6359 28.4087C29.5272 27.1724 28.556 26.1854 27.3271 26.0532C28.6029 25.8998 29.5933 24.8211 29.6103 23.5059H29.6423C29.6423 23.5251 29.6423 23.5464 29.6423 23.5656C29.6423 24.9021 30.6731 25.9957 31.9829 26.0938V26.0959Z" fill="#F1D73F"/>
</g>
<defs>
<clipPath id="clip0_323_68150">
<rect width="59" height="43" fill="white"/>
</clipPath>
</defs>
</svg>
