<?xml version="1.0" encoding="UTF-8" standalone="no" ?>
<!DOCTYPE svg PUBLIC "-//W3C//DTD SVG 1.1//EN" "http://www.w3.org/Graphics/SVG/1.1/DTD/svg11.dtd">
<svg xmlns="http://www.w3.org/2000/svg" xmlns:xlink="http://www.w3.org/1999/xlink" version="1.1" width="1080" height="500" viewBox="0 108.75 1080 500" xml:space="preserve">
<desc>Created with Fabric.js 5.2.4</desc>
<defs>
</defs>
<rect x="0" y="0" width="100%" height="100%" fill="transparent"></rect>
<g transform="matrix(Infinity NaN NaN Infinity 0 0)" id="3da87090-6782-475a-913b-def31f25f369"  >
</g>
<g transform="matrix(1 0 0 1 540 250)" id="1956c881-6a45-4ae1-8847-ce435ad89925"  >
<rect style="stroke: none; stroke-width: 1; stroke-dasharray: none; stroke-linecap: butt; stroke-dashoffset: 0; stroke-linejoin: miter; stroke-miterlimit: 4; fill: rgb(255,255,255); fill-rule: nonzero; opacity: 1; visibility: hidden;" vector-effect="non-scaling-stroke"  x="-540" y="-250" rx="0" ry="0" width="1080" height="500" />
</g>
<g transform="matrix(0.47 0 0 0.47 540 343.75)"  >
<g style="" vector-effect="non-scaling-stroke"   >
		<g transform="matrix(1 0 0 1 -246.25 0)"  >
<path style="stroke: none; stroke-width: 1; stroke-dasharray: none; stroke-linecap: butt; stroke-dashoffset: 0; stroke-linejoin: miter; stroke-miterlimit: 4; fill: rgb(255,255,255); fill-rule: nonzero; opacity: 1;" vector-effect="non-scaling-stroke"  transform=" translate(-153.6, -299.65)" d="M 192.1 273.3 C 189.29999999999998 271.6 185.7 271.6 182.6 273.3 L 160.9 286.5 L 146.1 295.1 L 124.39999999999999 308.3 C 121.6 310 117.99999999999999 310 114.89999999999999 308.3 L 97.6 298 C 94.8 296.3 92.89999999999999 293.1 92.89999999999999 289.7 L 92.89999999999999 269.4 C 92.89999999999999 266 94.6 262.79999999999995 97.6 261.09999999999997 L 114.6 251.09999999999997 C 117.39999999999999 249.39999999999998 121 249.39999999999998 124.1 251.09999999999997 L 141.1 261.09999999999997 C 143.9 262.79999999999995 145.79999999999998 265.99999999999994 145.79999999999998 269.4 L 145.79999999999998 282.59999999999997 L 160.6 273.7 L 160.6 260.5 C 160.6 257.1 158.9 253.9 155.9 252.2 L 124.4 233.29999999999998 C 121.60000000000001 231.6 118 231.6 114.9 233.29999999999998 L 82.9 252.2 C 79.80000000000001 253.89999999999998 78.2 257.09999999999997 78.2 260.5 L 78.2 298.5 C 78.2 301.9 79.9 305.1 82.9 306.8 L 114.9 325.7 C 117.7 327.4 121.30000000000001 327.4 124.4 325.7 L 146.1 312.8 L 160.9 303.90000000000003 L 182.6 291.00000000000006 C 185.4 289.30000000000007 189 289.30000000000007 192.1 291.00000000000006 L 209.1 301.00000000000006 C 211.9 302.70000000000005 213.79999999999998 305.90000000000003 213.79999999999998 309.30000000000007 L 213.79999999999998 329.6000000000001 C 213.79999999999998 333.00000000000006 212.1 336.2000000000001 209.1 337.9000000000001 L 192.1 348.2000000000001 C 189.29999999999998 349.9000000000001 185.7 349.9000000000001 182.6 348.2000000000001 L 165.6 338.2000000000001 C 162.79999999999998 336.5000000000001 160.9 333.3000000000001 160.9 329.9000000000001 L 160.9 316.7000000000001 L 146.1 325.6000000000001 L 146.1 338.80000000000007 C 146.1 342.20000000000005 147.79999999999998 345.4000000000001 150.79999999999998 347.1000000000001 L 182.79999999999998 366.00000000000006 C 185.6 367.70000000000005 189.2 367.70000000000005 192.29999999999998 366.00000000000006 L 224.29999999999998 347.1000000000001 C 227.1 345.4000000000001 228.99999999999997 342.2000000000001 228.99999999999997 338.80000000000007 L 228.99999999999997 300.80000000000007 C 228.99999999999997 297.4000000000001 227.29999999999998 294.20000000000005 224.29999999999998 292.50000000000006 L 192.1 273.3 z" stroke-linecap="round" />
</g>
		<g transform="matrix(1 0 0 1 -96.95 10)"  >
<path style="stroke: none; stroke-width: 1; stroke-dasharray: none; stroke-linecap: butt; stroke-dashoffset: 0; stroke-linejoin: miter; stroke-miterlimit: 4; fill: rgb(255,255,255); fill-rule: nonzero; opacity: 1;" vector-effect="non-scaling-stroke"  transform=" translate(-302.9, -309.65)" d="M 288 355.1 L 288 323.5 C 291.4 327.8 297.6 330.2 304.7 330.2 C 322.9 330.2 335.3 317.09999999999997 335.3 297.2 C 335.3 277.3 324 264.2 306.2 264.2 C 298 264.2 291.7 267.2 288 272.2 L 288 265.2 L 270.5 265.2 L 270.5 355 L 288 355 z M 302.6 315 C 293.20000000000005 315 287 307.9 287 297.2 C 287 286.4 293.2 279.3 302.6 279.3 C 311.8 279.3 318.1 286.40000000000003 318.1 297.2 C 318 307.9 311.7 315 302.6 315 z" stroke-linecap="round" />
</g>
		<g transform="matrix(1 0 0 1 -24.85 -2.45)"  >
<path style="stroke: none; stroke-width: 1; stroke-dasharray: none; stroke-linecap: butt; stroke-dashoffset: 0; stroke-linejoin: miter; stroke-miterlimit: 4; fill: rgb(255,255,255); fill-rule: nonzero; opacity: 1;" vector-effect="non-scaling-stroke"  transform=" translate(-375, -297.2)" d="M 375 330.2 C 394.5 330.2 408.5 316.2 408.5 297.2 C 408.5 278.2 394.5 264.2 375 264.2 C 355.5 264.2 341.5 278.2 341.5 297.2 C 341.5 316.2 355.5 330.2 375 330.2 z M 375 315 C 365.6 315 359.1 307.8 359.1 297.2 C 359.1 286.5 365.5 279.3 375 279.3 C 384.4 279.3 390.9 286.5 390.9 297.2 C 390.9 307.8 384.4 315 375 315 z" stroke-linecap="round" />
</g>
		<g transform="matrix(1 0 0 1 27.9 -16.3)"  >
<path style="stroke: none; stroke-width: 1; stroke-dasharray: none; stroke-linecap: butt; stroke-dashoffset: 0; stroke-linejoin: miter; stroke-miterlimit: 4; fill: rgb(255,255,255); fill-rule: nonzero; opacity: 1;" vector-effect="non-scaling-stroke"  transform=" translate(-427.75, -283.35)" d="M 436.5 329.2 L 436.5 237.5 L 419 237.5 L 419 329.2 L 436.5 329.2 z" stroke-linecap="round" />
</g>
		<g transform="matrix(1 0 0 1 76 10.55)"  >
<path style="stroke: none; stroke-width: 1; stroke-dasharray: none; stroke-linecap: butt; stroke-dashoffset: 0; stroke-linejoin: miter; stroke-miterlimit: 4; fill: rgb(255,255,255); fill-rule: nonzero; opacity: 1;" vector-effect="non-scaling-stroke"  transform=" translate(-475.85, -310.2)" d="M 489.1 265.3 L 475.90000000000003 306.5 L 462.6 265.3 L 444.70000000000005 265.3 L 467.70000000000005 328.7 L 458.40000000000003 355.09999999999997 L 475.1 355.09999999999997 L 484 328.99999999999994 L 507 265.29999999999995 L 489.1 265.29999999999995 z" stroke-linecap="round" />
</g>
		<g transform="matrix(1 0 0 1 141.65 9.95)"  >
<path style="stroke: none; stroke-width: 1; stroke-dasharray: none; stroke-linecap: butt; stroke-dashoffset: 0; stroke-linejoin: miter; stroke-miterlimit: 4; fill: rgb(255,255,255); fill-rule: nonzero; opacity: 1;" vector-effect="non-scaling-stroke"  transform=" translate(-541.5, -309.6)" d="M 556.3 271.6 C 552.8 267.20000000000005 546.5 264.20000000000005 538.8 264.20000000000005 C 520.3 264.20000000000005 509.09999999999997 277.30000000000007 509.09999999999997 297.20000000000005 C 509.09999999999997 317.1 520.3 330.20000000000005 539.0999999999999 330.20000000000005 C 546.4999999999999 330.20000000000005 553.1999999999999 327.40000000000003 556.4999999999999 322.70000000000005 L 556.4999999999999 331.1 C 556.4999999999999 337.1 552.5999999999999 341.20000000000005 547.2999999999998 341.20000000000005 L 518 341.20000000000005 L 518 355.00000000000006 L 550 355.00000000000006 C 564.3 355.00000000000006 573.9 346.20000000000005 573.9 332.90000000000003 L 573.9 265.20000000000005 L 556.3 265.20000000000005 L 556.3 271.6 z M 541.8 315 C 532.5 315 526.3 308 526.3 297.2 C 526.3 286.4 532.5 279.3 541.8 279.3 C 551.1999999999999 279.3 557.4 286.40000000000003 557.4 297.2 C 557.4 307.99999999999994 551.2 315 541.8 315 z" stroke-linecap="round" />
</g>
		<g transform="matrix(1 0 0 1 218.15 -2.45)"  >
<path style="stroke: none; stroke-width: 1; stroke-dasharray: none; stroke-linecap: butt; stroke-dashoffset: 0; stroke-linejoin: miter; stroke-miterlimit: 4; fill: rgb(255,255,255); fill-rule: nonzero; opacity: 1;" vector-effect="non-scaling-stroke"  transform=" translate(-618, -297.2)" d="M 618 330.2 C 637.5 330.2 651.5 316.2 651.5 297.2 C 651.5 278.2 637.5 264.2 618 264.2 C 598.5 264.2 584.5 278.2 584.5 297.2 C 584.5 316.2 598.5 330.2 618 330.2 z M 618 315 C 608.6 315 602.1 307.8 602.1 297.2 C 602.1 286.5 608.5 279.3 618 279.3 C 627.4 279.3 633.9 286.5 633.9 297.2 C 633.8 307.8 627.4 315 618 315 z" stroke-linecap="round" />
</g>
		<g transform="matrix(1 0 0 1 291.4 -2.9)"  >
<path style="stroke: none; stroke-width: 1; stroke-dasharray: none; stroke-linecap: butt; stroke-dashoffset: 0; stroke-linejoin: miter; stroke-miterlimit: 4; fill: rgb(255,255,255); fill-rule: nonzero; opacity: 1;" vector-effect="non-scaling-stroke"  transform=" translate(-691.25, -296.75)" d="M 678.6 329.2 L 678.6 294.2 C 678.6 286 684 280 691.7 280 C 699 280 703.9000000000001 285.6 703.9000000000001 293.3 L 703.9000000000001 329.2 L 721.5000000000001 329.2 L 721.5000000000001 289.4 C 721.5000000000001 274.7 712.2000000000002 264.29999999999995 697.8000000000001 264.29999999999995 C 689.1 264.29999999999995 682.1 267.99999999999994 678.5000000000001 274.19999999999993 L 678.5000000000001 265.29999999999995 L 661 265.29999999999995 L 661 329.19999999999993 L 678.6 329.19999999999993 z" stroke-linecap="round" />
</g>
</g>
</g>
</svg>