<svg width="84" height="83" viewBox="0 0 84 83" fill="none" xmlns="http://www.w3.org/2000/svg">
<path d="M75.1658 16.9422C73.9825 15.3181 72.683 13.7823 71.2771 12.3466C71.1772 12.246 71.0824 12.1461 70.9824 12.0455C66.5388 7.59742 61.1353 4.22675 55.1863 2.19238V56.1501C55.1864 57.9588 54.8302 59.7498 54.138 61.4208C53.4459 63.0919 52.4315 64.6103 51.1525 65.889C49.8736 67.1684 48.3552 68.1829 46.6841 68.8748C45.0131 69.5667 43.2221 69.9231 41.4134 69.9231H33.2031V81.347C36.0609 81.9564 38.9748 82.2641 41.897 82.2641C49.4847 82.2648 56.9248 80.1669 63.3944 76.2023C69.8641 72.2377 75.1106 66.5602 78.554 59.799C81.9974 53.0377 83.5033 45.4555 82.9055 37.8914C82.3076 30.3272 79.6289 23.0759 75.1658 16.9396V16.9422Z" fill="#0064AF"/>
<path d="M41.8968 6.8244e-09C34.3093 0.000722535 26.8698 2.09988 20.4011 6.06535C13.9324 10.0308 8.68633 15.7081 5.2432 22.4693C1.80006 29.2306 0.293955 36.8124 0.891426 44.3763C1.48889 51.9402 4.16668 59.1915 8.62863 65.3284C9.81457 66.9517 11.1161 68.4875 12.5231 69.9232C12.6198 70.0206 12.7146 70.118 12.8113 70.2218C17.2541 74.6693 22.6559 78.0407 28.6029 80.0775V26.1146C28.6045 22.4619 30.0565 18.9594 32.6399 16.3772C35.2233 13.7949 38.7264 12.3443 42.3791 12.3443H50.5893V0.920401C47.7323 0.308458 44.8186 -5.29807e-05 41.8968 6.8244e-09Z" fill="#003572"/>
</svg>
