<svg width="101" height="90" viewBox="0 0 101 90" fill="none" xmlns="http://www.w3.org/2000/svg">
<path d="M49.265 42.8232V16.3988L29.3068 0V23.0369C6.82998 29.284 11.1127 35.3201 14.5602 37.9014L0.222656 44.7861L23.593 56.0157L47.2686 44.7861L23.593 33.5653L15.0382 37.6742C11.367 32.7139 22.5459 26.7827 29.3068 23.7718V26.7576L49.265 42.8232Z" fill="#BF0A44"/>
<path d="M72.4555 62.3721L52.4972 46.3047V72.7279L61.2247 79.8997C59.6813 86.6739 50.9605 81.5869 44.6747 76.8448L49.6898 72.7279V46.3047L29.7314 62.3721V89.1269L43.7332 77.6236C59.2926 93.5756 61.1642 83.4682 61.3696 80.0142L72.4562 89.1269L72.4555 62.3721Z" fill="#0063B0"/>
<path d="M79.4672 34.9046C84.7735 10.1465 75.2783 14.0665 72.0293 16.0131V0.00146484L52.0703 16.3993V42.8227L72.0293 26.7524V16.2249C79.0716 13.5647 79.2464 26.6608 78.748 34.5626L76.6474 33.5658L53.2768 44.7875L76.6474 56.0171L100.321 44.7875L79.4672 34.9046Z" fill="#249795"/>
</svg>
