<svg width="83" height="84" viewBox="0 0 83 84" fill="none" xmlns="http://www.w3.org/2000/svg">
<path fill-rule="transparent" clip-rule="evenodd" d="M62.8576 1C74.7481 1 82.4609 8.71277 82.4609 20.6033V63.6662C82.4609 75.5567 74.7481 83.2695 62.8576 83.2695H19.7947C7.90417 83.2695 0.191406 75.5567 0.191406 63.6662V20.6033C0.191406 8.71277 7.90417 1 19.7947 1H62.8576Z" fill="transparent"/>
<path fill-rule="evenodd" clip-rule="evenodd" d="M62.8576 1C74.7481 1 82.4609 8.71277 82.4609 20.6033V63.6662C82.4609 75.5567 74.7481 83.2695 62.8576 83.2695H19.7947C7.90417 83.2695 0.191406 75.5567 0.191406 63.6662V20.6033C0.191406 8.71277 7.90417 1 19.7947 1H62.8576Z" stroke="#A4A4A4" stroke-width="0.34279"/>
<path fill-rule="evenodd" clip-rule="evenodd" d="M41.6686 76.4139C60.6003 76.4139 75.9476 61.0666 75.9476 42.1349C75.9476 23.2032 60.6003 7.85596 41.6686 7.85596C22.7369 7.85596 7.38965 23.2032 7.38965 42.1349C7.38965 61.0666 22.7369 76.4139 41.6686 76.4139Z" fill="url(#paint0_linear_322_163)"/>
<path fill-rule="evenodd" clip-rule="evenodd" d="M19.0449 58.9315L25.5579 63.0449L33.7849 48.9906L45.7825 56.1891L56.409 36.9929L63.9504 41.4492L61.208 21.5674L42.6974 29.1088L49.896 33.2222L43.0402 45.5627L31.0426 38.3641L19.0449 58.9315Z" fill="white"/>
<defs>
<linearGradient id="paint0_linear_322_163" x1="7.38965" y1="7.85596" x2="7.38965" y2="76.4139" gradientUnits="userSpaceOnUse">
<stop stop-color="rgba(125,234,101,0.6)"/>
<stop offset="1" stop-color="rgba(125,234,101,0)"/>
</linearGradient>
</defs>
</svg>
