<svg width="91" height="91" viewBox="0 0 91 91" fill="none" xmlns="http://www.w3.org/2000/svg">
<path d="M90.7335 48.0491C90.7885 47.2254 90.8324 46.098 90.8324 45.2188C90.8324 44.2303 90.7929 43.204 90.7066 41.9898C89.884 30.5824 84.772 19.9097 76.398 12.1193C68.0246 4.32882 57.0114 -0.00135828 45.5745 3.19599e-07C34.1375 0.00135892 23.1253 4.33415 14.7537 12.1266C6.38211 19.9191 1.2723 30.5929 0.452417 42.0005C-0.367467 53.4081 3.16341 64.7032 10.3346 73.6126C17.5059 82.522 27.7852 88.3853 39.1045 90.0218C50.4238 91.6588 61.9433 88.9482 71.3447 82.4353C80.7462 75.9224 87.3321 66.0904 89.7775 54.9179C89.7775 54.9179 89.9214 54.3649 90.0411 53.7097C90.3376 52.0299 90.6561 49.5 90.7335 48.0491ZM45.5435 84.8477C37.8257 84.8499 30.2752 82.5989 23.8189 78.3705C17.3626 74.142 12.2815 68.12 9.19936 61.0448C6.11726 53.969 5.16834 46.1473 6.46904 38.54C7.76976 30.9326 11.2635 23.8706 16.5214 18.2209C21.7792 12.5713 28.5724 8.57984 36.0668 6.73667C43.5613 4.89351 51.4308 5.27882 58.7093 7.8453C65.9878 10.4118 72.3584 15.0478 77.0394 21.184C81.7203 27.3203 84.5073 34.6899 85.0586 42.3879C85.1256 43.3242 85.1718 44.2655 85.1718 45.2188C85.1718 46.1721 85.1256 47.1128 85.0586 48.0491H50.4194C49.7963 49.1281 48.8346 49.9712 47.6835 50.448C46.5324 50.9247 45.2561 51.0082 44.0526 50.6857C42.8492 50.3631 41.7858 49.6525 41.0274 48.664C40.2689 47.6756 39.8578 46.4644 39.8578 45.2185C39.8578 43.9726 40.2689 42.7615 41.0274 41.773C41.7858 40.7845 42.8492 40.0739 44.0526 39.7514C45.2561 39.4288 46.5324 39.5124 47.6835 39.9891C48.8346 40.4658 49.7963 41.309 50.4194 42.3879H79.3843C78.6792 33.8968 74.8109 25.9801 68.5451 20.2063C62.2799 14.4325 54.0738 11.2226 45.5535 11.2127C37.0332 11.2027 28.8199 14.3934 22.5408 20.1527C16.2617 25.9119 12.3748 33.8195 11.6502 42.309C10.9255 50.7984 13.416 59.2502 18.6281 65.9904C23.8403 72.7307 31.394 77.2672 39.7928 78.7016C48.1915 80.1354 56.8224 78.3628 63.9762 73.7345C71.13 69.1063 76.2838 61.9597 78.4178 53.7108H84.247C82.3107 62.5352 77.4178 70.4325 70.3788 76.0953C63.3398 81.7582 54.5775 84.846 45.5435 84.8477ZM45.5435 28.2374C42.5615 28.2337 39.6312 29.0153 37.0471 30.5035C34.4631 31.9917 32.3165 34.1341 30.8231 36.7151C29.3298 39.2962 28.5423 42.225 28.5401 45.2069C28.5378 48.1889 29.3208 51.1188 30.8102 53.7022C32.2996 56.2853 34.4429 58.4314 37.0247 59.9234C39.6064 61.4155 42.5356 62.2013 45.5175 62.2024C48.4995 62.2035 51.4291 61.4188 54.0117 59.9284C56.5946 58.4374 58.739 56.2935 60.2299 53.7108H66.5062C64.5353 58.5818 60.9317 62.6159 56.3134 65.1217C51.6944 67.6274 46.348 68.449 41.1901 67.4451C36.0322 66.4413 31.3841 63.6747 28.0422 59.6197C24.7003 55.5643 22.8727 50.4734 22.8727 45.2188C22.8727 39.9641 24.7003 34.8731 28.0422 30.818C31.3841 26.7631 36.0322 23.9966 41.1901 22.9927C46.348 21.9889 51.6944 22.8102 56.3134 25.3159C60.9317 27.8216 64.5353 31.8556 66.5062 36.7267H60.2288C58.7423 34.1465 56.6022 32.0033 54.0238 30.513C51.4456 29.0228 48.5203 28.2379 45.5424 28.2374H45.5435Z" fill="#B60636"/>
</svg>
