<svg width="152" height="47" viewBox="0 0 152 47" fill="none" xmlns="http://www.w3.org/2000/svg">
<path d="M22.794 9.27844C22.794 23.1664 0.649953 26.8144 0.649953 42.0464V45.5024H33.482L30.282 29.8864H29.642C29.642 32.8944 28.298 36.2224 23.946 36.2224H2.82595C9.22595 25.2784 33.482 25.2144 33.482 10.9424C33.482 1.72644 24.202 0.062439 16.65 0.062439C9.41795 0.062439 2.76195 4.67044 0.585953 6.59044L3.20995 17.0864H3.84995C5.96195 6.59044 10.698 0.830441 16.65 0.830441C20.874 0.830441 22.794 4.35044 22.794 9.34244V9.27844ZM75.383 23.0384C75.383 9.27844 68.087 0.062439 57.079 0.062439C46.071 0.062439 38.775 9.27844 38.775 23.0384C38.775 36.9904 46.071 46.1424 57.079 46.1424C68.087 46.1424 75.383 36.9264 75.383 23.0384ZM48.823 23.0384C48.823 9.72644 50.359 0.702438 57.079 0.702438C63.799 0.702438 65.335 9.66244 65.335 23.0384C65.335 36.5424 63.799 45.5024 57.079 45.5024C50.359 45.5024 48.823 36.5424 48.823 23.0384ZM102.481 9.27844C102.481 23.1664 80.3375 26.8144 80.3375 42.0464V45.5024H113.169L109.969 29.8864H109.329C109.329 32.8944 107.985 36.2224 103.633 36.2224H82.5135C88.9135 25.2784 113.169 25.2144 113.169 10.9424C113.169 1.72644 103.889 0.062439 96.3375 0.062439C89.1055 0.062439 82.4495 4.67044 80.2735 6.59044L82.8975 17.0864H83.5375C85.6495 6.59044 90.3855 0.830441 96.3375 0.830441C100.561 0.830441 102.481 4.35044 102.481 9.34244V9.27844ZM140.609 9.98244L130.113 21.6944V22.3344C135.809 21.1824 141.313 21.7584 141.313 32.3184C141.313 37.8864 138.689 45.4384 132.545 45.4384C126.337 45.4384 124.033 39.6784 121.409 29.1824H120.769L118.145 39.6784C120.129 41.9184 125.953 46.2064 133.185 46.2064C143.681 46.2064 151.297 40.5104 151.297 32.5104C151.297 21.0544 139.713 20.2224 131.137 21.5664L149.249 1.34244V0.702438H119.553L122.817 16.3184H123.457C123.457 13.3104 124.801 9.98244 129.153 9.98244H140.609Z" fill="#3B28FE"/>
</svg>
