<svg width="256" height="58" viewBox="0 0 256 58" fill="none" xmlns="http://www.w3.org/2000/svg">
<path d="M33.596 31.1763V15.3746C33.596 5.3049 25.4308 0.502441 17.2656 0.502441C12.9885 0.502441 7.62283 1.8967 3.34581 4.45285L10.0335 13.1283C10.0335 13.1283 11.0445 1.35449 16.6435 1.35449C20.4539 1.35449 21.9314 6.38934 22.2425 15.8394C10.8112 17.5435 0.00195312 21.4164 0.00195312 31.641C0.00195312 39.5419 6.53414 42.4853 12.522 42.4853C18.0432 42.4853 21.3871 39.3095 22.3202 35.5914V41.7107L39.7394 36.5209V35.9013C36.6288 35.9013 33.596 33.7324 33.596 31.1763ZM16.6435 40.239C13.1441 40.239 11.5888 36.0562 11.5888 31.4086C11.5888 26.2963 12.3664 18.318 22.2425 16.6139L22.3202 20.5644V26.3738C22.3202 36.4435 20.2984 40.1615 16.6435 40.1615V40.239Z" fill="#04D788"/>
<path d="M38.5997 6.31188C41.788 6.31188 44.8208 8.48073 44.8208 11.0369V47.6751C44.8208 52.0128 41.9435 55.3435 38.5997 56.5829V57.2025H62.3955V56.5829C58.9739 55.3435 56.0966 52.0128 56.0966 47.6751V40.239C58.3518 41.6332 60.918 42.4853 64.0285 42.4853C76.1597 42.4853 84.0917 34.1197 84.0917 21.4164C84.0917 8.79056 76.1597 0.5799 64.0285 0.5799C61.229 0.5799 58.0407 1.50941 56.0966 3.13605V0.5799L38.5997 5.76966V6.38933V6.31188ZM56.0966 21.4164V4.06556C57.4186 2.98113 59.1294 2.74876 60.918 2.74876C66.7503 2.74876 71.6494 9.25532 72.5048 21.4164C73.2047 31.1763 69.8608 41.0136 64.1063 41.0136C59.9848 41.0136 56.0966 37.7603 56.0966 21.4164Z" fill="#04D788"/>
<path d="M128.473 21.4939C128.473 8.86802 120.541 0.502441 108.488 0.502441C96.4343 0.502441 88.4246 8.86802 88.4246 21.4939C88.4246 34.1197 96.4343 42.4853 108.488 42.4853C120.541 42.4853 128.473 34.1197 128.473 21.4939ZM98.6117 12.5861C98.6117 4.76269 100.634 1.81924 104.677 1.89671C114.398 2.05162 118.286 21.6488 118.286 30.1693C118.286 35.6689 117.12 40.9361 113.076 40.9361C103.355 40.9361 98.6117 21.1066 98.6117 12.5861Z" fill="#04D788"/>
<path d="M172.868 21.4939C172.868 8.86802 164.936 0.502441 152.883 0.502441C140.829 0.502441 132.819 8.86802 132.819 21.4939C132.819 34.1197 140.829 42.4853 152.883 42.4853C164.936 42.4853 172.868 34.1197 172.868 21.4939ZM143.006 12.5861C143.006 4.76269 145.028 1.81924 149.072 1.89671C158.793 2.05162 162.681 21.6488 162.681 30.1693C162.681 35.6689 161.514 40.9361 157.471 40.9361C147.75 40.9361 143.006 21.1066 143.006 12.5861Z" fill="#04D788"/>
<path d="M192.024 9.33279V0.502441L174.527 5.6922V6.31188C177.715 6.31188 180.748 8.48073 180.748 11.0369V32.2607C180.748 36.5984 177.871 39.9291 174.527 41.1685V41.7882H198.323V41.1685C194.901 39.9291 192.024 36.5984 192.024 32.2607V10.0299C193.579 8.63565 195.99 7.31885 198.945 7.31885C201.667 7.31885 204.622 9.33278 205.088 12.9734L211.543 1.66433C210.765 1.12211 208.51 0.502441 206.488 0.502441C199.1 0.502441 194.201 6.00204 192.024 9.33279Z" fill="#04D788"/>
<path d="M233.695 41.7882H234.317L246.603 10.7271C248.781 5.22745 251.658 3.21351 255.002 1.97416V1.35449H243.26V1.97416C246.526 3.13605 247.459 6.62171 245.904 10.4172L239.216 27.6131L231.673 9.95246C229.962 5.92458 231.051 3.05859 234.239 1.89671V1.27703H211.376V1.89671C214.565 3.05859 217.908 4.68523 220.241 10.1848L233.695 41.7107V41.7882Z" fill="#04D788"/>
<path fill-rule="evenodd" clip-rule="evenodd" d="M117.93 22.0035C118.24 22.0041 118.545 22.0193 118.847 22.0484V21.9586C118.545 21.9878 118.24 22.003 117.93 22.0035ZM108.482 32.2894C108.455 32.0117 108.439 31.7305 108.437 31.4462C108.435 31.7305 108.419 32.0117 108.392 32.2894H108.482ZM108.437 31.2863C108.48 26.1579 112.697 22.0127 117.895 22.0035C112.697 21.9943 108.48 17.8491 108.437 12.7207C108.394 17.8491 104.177 21.9943 98.9788 22.0035C104.177 22.0128 108.394 26.1579 108.437 31.2863ZM97.7598 21.929C98.1476 21.9775 98.5427 22.0028 98.9436 22.0035C98.5427 22.0042 98.1476 22.0296 97.7598 22.0781V21.929ZM108.437 12.5608C108.44 12.1863 108.466 11.8169 108.512 11.4541H108.362C108.408 11.8169 108.434 12.1863 108.437 12.5608Z" fill="#04D788"/>
</svg>
